<?xml version="1.0" encoding="UTF-8" standalone="no"?>
<!-- Created with Inkscape (http://www.inkscape.org/) -->

<svg
   width="210mm"
   height="297mm"
   viewBox="0 0 210 297"
   version="1.1"
   id="svg288"
   xml:space="preserve"
   inkscape:export-filename="asteroid-A.png"
   inkscape:export-xdpi="13.683502"
   inkscape:export-ydpi="13.683502"
   inkscape:version="1.2.2 (b0a8486541, 2022-12-01)"
   sodipodi:docname="asteroids.svg"
   xmlns:inkscape="http://www.inkscape.org/namespaces/inkscape"
   xmlns:sodipodi="http://sodipodi.sourceforge.net/DTD/sodipodi-0.dtd"
   xmlns:xlink="http://www.w3.org/1999/xlink"
   xmlns="http://www.w3.org/2000/svg"
   xmlns:svg="http://www.w3.org/2000/svg"><sodipodi:namedview
     id="namedview290"
     pagecolor="#ffffff"
     bordercolor="#000000"
     borderopacity="0.25"
     inkscape:showpageshadow="2"
     inkscape:pageopacity="0"
     inkscape:pagecheckerboard="true"
     inkscape:deskcolor="#d1d1d1"
     inkscape:document-units="mm"
     showgrid="false"
     inkscape:zoom="2.587745"
     inkscape:cx="121.72761"
     inkscape:cy="508.93733"
     inkscape:window-width="1920"
     inkscape:window-height="1128"
     inkscape:window-x="0"
     inkscape:window-y="219"
     inkscape:window-maximized="1"
     inkscape:current-layer="layer1"
     showguides="true"><sodipodi:guide
       position="14.298626,178.42771"
       orientation="1,0"
       id="guide1218"
       inkscape:locked="false" /><sodipodi:guide
       position="39.722084,170.06315"
       orientation="1,0"
       id="guide1220"
       inkscape:locked="false" /><sodipodi:guide
       position="27.043736,165.41101"
       orientation="1,0"
       id="guide1222"
       inkscape:locked="false" /><sodipodi:guide
       position="24.487617,171.87799"
       orientation="0,-1"
       id="guide1224"
       inkscape:locked="false" /></sodipodi:namedview><defs
     id="defs285"><filter
       inkscape:collect="always"
       style="color-interpolation-filters:sRGB"
       id="filter1323"
       x="-0.058215543"
       y="-0.057945079"
       width="1.1164311"
       height="1.1158902"><feGaussianBlur
         inkscape:collect="always"
         stdDeviation="0.50749102"
         id="feGaussianBlur1325" /></filter><filter
       inkscape:collect="always"
       style="color-interpolation-filters:sRGB"
       id="filter1323-3"
       x="-0.11903643"
       y="-0.17034851"
       width="1.2380729"
       height="1.340697"><feGaussianBlur
         inkscape:collect="always"
         stdDeviation="0.50749102"
         id="feGaussianBlur1325-6" /></filter><filter
       inkscape:collect="always"
       style="color-interpolation-filters:sRGB"
       id="filter981"
       x="-0.09449873"
       y="-0.26073039"
       width="1.1889975"
       height="1.5214608"><feGaussianBlur
         inkscape:collect="always"
         stdDeviation="0.20644485"
         id="feGaussianBlur983" /></filter></defs><g
     inkscape:label="Layer 1"
     inkscape:groupmode="layer"
     id="layer1"><rect
       style="opacity:0.776782;fill:#0b2822;stroke:#f2f2f2;stroke-width:0.919537;stroke-linecap:round;stroke-linejoin:round;stroke-dasharray:none"
       id="rect1715"
       width="135.85416"
       height="32.042343"
       x="7.2236128"
       y="119.41483" /><image
       width="90.311111"
       height="56.444443"
       preserveAspectRatio="none"
       xlink:href="asteroids-cutting-guide-2x.png"
       id="image420"
       x="16.411858"
       y="57.849354" /><rect
       style="fill:none;stroke:none;stroke-width:1.55532;stroke-dasharray:none;stroke-opacity:1"
       id="rect1433"
       width="40.778015"
       height="40.778015"
       x="11.038246"
       y="11.917398"
       inkscape:export-filename="asteroid-A.png"
       inkscape:export-xdpi="99.661545"
       inkscape:export-ydpi="99.661545" /><g
       id="g1877"
       transform="translate(59.086256,65.655175)"><path
         id="path639"
         style="color:#000000;mix-blend-mode:normal;fill:#d7eef4;stroke-width:0.516639;stroke-dasharray:none;filter:url(#filter1323)"
         d="m 30.132912,15.651606 c -1.434245,0.902995 -2.868489,1.80599 -4.302734,2.708984 -1.60308,-0.926058 -3.204349,-1.855261 -4.808594,-2.779296 -1.883328,1.928486 -3.769774,3.853929 -5.654297,5.78125 0.823679,1.621336 1.669581,3.233655 2.501953,4.851562 -0.926639,1.462759 -1.851467,2.926668 -2.779297,4.388672 1.96202,1.943586 3.92429,3.886928 5.888672,5.828125 0.774355,-0.913639 1.550873,-1.825443 2.326172,-2.738281 2.360679,0.794916 4.721342,1.589881 7.082032,2.384765 1.696335,-2.621311 3.389519,-5.244665 5.083984,-7.867187 -1.329962,-1.298916 -2.657369,-2.600448 -3.986328,-3.900391 1.509151,-0.89447 3.017944,-1.789543 4.527344,-2.683593 -1.832125,-2.072682 -3.665173,-4.144556 -5.5,-6.214844 -0.126303,0.08008 -0.252605,0.160156 -0.378907,0.240234 z m 3.828126,5.652344 c -1.544946,0.915324 -3.08963,1.83109 -4.634766,2.746094 1.482903,1.448711 2.963399,2.899885 4.445312,4.349609 -1.313151,2.031901 -2.626302,4.063802 -3.939453,6.095703 -2.318465,-0.779633 -4.636062,-1.561858 -6.955078,-2.339844 -0.660178,0.777228 -1.321697,1.553316 -1.982422,2.330078 -1.371745,-1.358072 -2.74349,-2.716145 -4.115234,-4.074218 0.871133,-1.376277 1.741933,-2.752765 2.613281,-4.128906 -0.803873,-1.559014 -1.609512,-3.117117 -2.414063,-4.675782 1.423177,-1.455078 2.846355,-2.910156 4.269532,-4.365234 1.536762,0.886841 3.071101,1.7779 4.609375,2.662109 1.46907,-0.925004 2.938856,-1.848872 4.408203,-2.773437 1.231771,1.391276 2.463542,2.782552 3.695313,4.173828 z"
         transform="matrix(0.98654131,0,0,0.98654131,5.5260889,45.833985)" /><path
         style="fill:none;stroke:#ffffff;stroke-width:0.79375;stroke-dasharray:none;stroke-opacity:1"
         d="m 21.666165,67.138536 4.897902,-5.006892 4.644513,2.684395 4.484676,-2.823561 4.535541,5.12469 -4.520251,2.678171 4.159588,4.069952 -4.450043,6.88615 -6.924281,-2.329774 -2.125992,2.500255 -4.9346,-4.883542 2.659734,-4.202758 z"
         id="path541"
         sodipodi:nodetypes="ccccccccccccc" /></g><path
       id="path1169"
       style="color:#000000;font-variation-settings:normal;opacity:1;vector-effect:none;fill:#d7eef4;fill-opacity:1;stroke-width:0.793751;stroke-linecap:butt;stroke-linejoin:miter;stroke-miterlimit:4;stroke-dasharray:none;stroke-dashoffset:0;stroke-opacity:1;-inkscape-stroke:none;filter:url(#filter1323-3);stop-color:#000000;stop-opacity:1"
       d="m 36.30481,136.99808 c -0.863576,0.15735 -0.955518,1.36334 -0.239738,1.78094 0.409486,0.47535 1.203903,0.78351 0.993645,1.52804 0.04855,0.64276 0.0554,1.26993 -0.524734,1.6777 -0.49798,0.46987 -1.129712,1.26305 -0.512376,1.90199 0.785557,0.6523 1.734577,-0.16146 2.559062,-0.32718 2.272246,-0.81885 4.59207,-1.53521 6.834991,-2.41729 0.779022,-0.47906 0.33181,-1.69667 -0.529483,-1.73484 -2.775142,-0.79775 -5.534818,-1.66999 -8.319648,-2.42108 -0.08724,0.004 -0.174479,0.008 -0.261719,0.0117 z m 5.574219,3.45312 c -0.989583,0.34375 -1.979167,0.6875 -2.96875,1.03125 0,-0.63477 0,-1.26953 0,-1.9043 0.989583,0.29102 1.979167,0.58204 2.96875,0.87305 z" /><path
       id="path1307"
       style="color:#000000;font-variation-settings:normal;opacity:1;vector-effect:none;fill:#d7eef4;fill-opacity:1;stroke-width:0.793751;stroke-linecap:butt;stroke-linejoin:miter;stroke-miterlimit:4;stroke-dasharray:none;stroke-dashoffset:0;stroke-opacity:1;-inkscape-stroke:none;filter:url(#filter1323-3);stop-color:#000000;stop-opacity:1"
       d="m 29.077318,125.12791 c -0.910928,0.0887 -1.060159,1.3652 -0.308093,1.79266 0.893366,0.46942 -0.260297,0.75243 -0.663597,1.10376 -0.571181,0.19234 -0.489586,1.24206 0.08866,1.37973 0.422683,0.34552 1.527506,0.58695 0.694619,1.12407 -0.705311,0.4952 -0.459333,1.77297 0.466133,1.76233 1.429424,-0.30983 2.793218,-0.94156 4.196982,-1.37659 1.516612,-0.55808 3.083599,-1.00842 4.569437,-1.63244 0.778735,-0.47729 0.328034,-1.69522 -0.531152,-1.73237 -2.795697,-0.79445 -5.574049,-1.69747 -8.380536,-2.42448 l -0.09997,0.003 z m 5.507812,3.46485 c -0.990234,0.3444 -1.980468,0.6888 -2.970703,1.0332 0,-0.63541 0,-1.27083 0,-1.90625 0.990235,0.29102 1.980469,0.58203 2.970703,0.87305 z"
       inkscape:export-filename="starship.png"
       inkscape:export-xdpi="96"
       inkscape:export-ydpi="96" /><path
       id="path1171"
       style="color:#000000;fill:#f9f9f9;stroke-linecap:round;stroke-linejoin:round;-inkscape-stroke:none"
       d="m 29.208042,125.5425 a 0.39691468,0.39691468 0 0 0 -0.295589,0.68781 l 1.148251,1.07177 -2.012797,1.28933 2.044836,1.26194 -1.015959,1.16995 a 0.39691468,0.39691468 0 0 0 0.429431,0.63666 l 8.240324,-2.86133 a 0.39691468,0.39691468 0 0 0 -0.01757,-0.75602 l -8.433593,-2.48409 a 0.39691468,0.39691468 0 0 0 -0.08733,-0.016 z m 1.472262,1.25005 5.638416,1.66037 -5.669939,1.97042 0.340031,-0.39223 a 0.39691468,0.39691468 0 0 0 0.09767,-0.25993 v -2.42569 a 0.39691468,0.39691468 0 0 0 -0.125057,-0.28939 z m -0.387056,1.30328 v 0.94878 l -0.754993,-0.46509 z" /><g
       id="g308"
       transform="translate(4.7889106,4.4571178)"
       style="opacity:0.538137;fill:#d7eef4;filter:url(#filter981)"
       inkscape:export-filename="laser.png"
       inkscape:export-xdpi="96"
       inkscape:export-ydpi="96"><path
         style="color:#000000;fill:#d7eef4;stroke-width:0.813107;stroke-linecap:round;-inkscape-stroke:none"
         d="m 18.046708,138.49233 h 3.400397"
         id="path328" /><path
         id="path325"
         style="color:#000000;fill:#d7eef4;stroke-linecap:round;-inkscape-stroke:none"
         d="m 17.837593,137.79217 c -1.152408,0.27787 -0.98115,1.09887 -0.105464,1.36565 1.25104,0.16935 2.543597,0.0237 3.810547,0.0723 1.2259,-0.24195 1.074323,-0.90363 0.308589,-1.34611 -1.197492,-0.24822 -2.455177,-0.0418 -3.676562,-0.10938 -0.111259,0.0102 -0.229317,-0.0189 -0.33711,0.0176 z"
         sodipodi:nodetypes="ccccccc" /></g><g
       id="path1435"
       transform="translate(4.6921418,4.4571178)"><path
         style="color:#000000;fill:#d7eef4;stroke-width:0.813107;stroke-linecap:round;-inkscape-stroke:none"
         d="m 18.046708,138.49233 h 3.400397"
         id="path1439" /><path
         style="color:#000000;fill:#f9f9f9;stroke-linecap:round;-inkscape-stroke:none"
         d="m 18.046875,138.08594 a 0.40655351,0.40655351 0 0 0 -0.40625,0.40625 0.40655351,0.40655351 0 0 0 0.40625,0.40625 h 3.400391 a 0.40655351,0.40655351 0 0 0 0.40625,-0.40625 0.40655351,0.40655351 0 0 0 -0.40625,-0.40625 z"
         id="path1441" /></g><rect
       style="opacity:0.538137;fill:none;stroke:none;stroke-width:0.999855"
       id="rect1037"
       width="6.8791666"
       height="3.175"
       x="21.141682"
       y="141.35574" /><g
       id="g1190"
       transform="translate(-0.05532446,-0.08494148)"><path
         id="path1072"
         style="color:#000000;font-variation-settings:normal;opacity:1;vector-effect:none;fill:#d7eef4;fill-opacity:1;stroke-width:0.793751;stroke-linecap:butt;stroke-linejoin:miter;stroke-miterlimit:4;stroke-dasharray:none;stroke-dashoffset:0;stroke-opacity:1;-inkscape-stroke:none;filter:url(#filter1323-3);stop-color:#000000;stop-opacity:1"
         d="m 16.311756,125.22852 c -0.863576,0.15735 -0.955518,1.36334 -0.239738,1.78094 0.409486,0.47535 1.203903,0.78351 0.993645,1.52804 0.04855,0.64276 0.0554,1.26993 -0.524734,1.6777 -0.49798,0.46987 -1.129712,1.26305 -0.512376,1.90199 0.785557,0.6523 1.734577,-0.16146 2.559062,-0.32718 2.272246,-0.81885 4.59207,-1.53521 6.834991,-2.41729 0.779022,-0.47906 0.33181,-1.69667 -0.529483,-1.73484 -2.775142,-0.79775 -5.534818,-1.66999 -8.319648,-2.42108 -0.08724,0.004 -0.174479,0.008 -0.261719,0.0117 z m 5.574219,3.45312 c -0.989583,0.34375 -1.979167,0.6875 -2.96875,1.03125 0,-0.63477 0,-1.26953 0,-1.9043 0.989583,0.29102 1.979167,0.58204 2.96875,0.87305 z" /><path
         style="color:#000000;fill:#f9f9f9;stroke-linecap:round;stroke-linejoin:round;-inkscape-stroke:none"
         d="m 16.487707,125.74609 a 0.39691468,0.39691468 0 0 0 -0.382813,0.67188 l 1.380859,1.28906 v 2.10352 l -1.216796,1.40039 a 0.39691468,0.39691468 0 0 0 0.429687,0.63672 l 8.240234,-2.86133 a 0.39691468,0.39691468 0 0 0 -0.01758,-0.75586 z m 1.384765,1.23438 5.638672,1.66015 -5.669922,1.97071 0.339844,-0.39258 a 0.39691468,0.39691468 0 0 0 0.09766,-0.25977 v -2.42578 a 0.39691468,0.39691468 0 0 0 -0.125,-0.28906 z"
         id="path357" /></g><rect
       style="opacity:0.538137;fill:none;stroke:none;stroke-width:0.976313"
       id="rect1134"
       width="25.4"
       height="12.7"
       x="14.303769"
       y="122.35682" /><path
       id="path1656"
       style="color:#000000;font-variation-settings:normal;opacity:1;vector-effect:none;fill:#d7eef4;fill-opacity:1;stroke-width:0.793751;stroke-linecap:butt;stroke-linejoin:miter;stroke-miterlimit:4;stroke-dasharray:none;stroke-dashoffset:0;stroke-opacity:1;-inkscape-stroke:none;filter:url(#filter1323-3);stop-color:#000000;stop-opacity:1"
       d="m 61.521938,127.00921 c -0.886316,0.0517 -1.10509,1.13884 -0.619291,1.75773 0.445362,1.00263 0.890725,2.00526 1.336088,3.0079 -1.852251,0.0295 -3.71675,-0.0585 -5.561514,0.0432 -0.996655,0.29573 -0.627913,1.51288 -0.694345,2.28261 0.035,2.01041 -0.07013,4.03724 0.05279,6.03739 0.89707,1.58132 2.031031,3.04136 3.019155,4.57599 0.621123,0.81016 1.056073,1.78998 1.805011,2.48467 0.856749,0.3392 1.705571,-0.32893 2.546003,-0.47471 1.527634,-0.47718 3.055269,-0.95436 4.582903,-1.43154 0.997537,0.58705 1.885375,1.40836 2.95388,1.84503 0.954794,0.0604 1.404822,-1.01382 2.075134,-1.5256 1.072256,-1.1488 2.280472,-2.19295 3.267861,-3.40732 0.389789,-0.95081 -0.762583,-1.408 -1.341214,-1.88873 -1.304882,-0.96222 -2.609763,-1.92444 -3.914645,-2.88666 1.501724,-0.52175 3.05819,-0.92261 4.526286,-1.51878 0.688447,-0.57504 0.449376,-1.61765 0.679278,-2.40627 0.1902,-0.60991 0.128871,-1.38364 -0.5385,-1.66795 -2.340074,-1.63146 -4.644504,-3.32284 -7.006908,-4.91677 -1.177794,-0.20857 -2.407061,0.0242 -3.605046,-0.008 -1.187641,0.0326 -2.375282,0.0652 -3.562923,0.0978 z m 12.886719,6.18359 c -0.148578,0.56659 0.06241,1.4374 -0.756303,1.43699 -1.688499,0.57231 -3.414671,1.05718 -5.079634,1.68411 -0.770798,0.45551 -0.420078,1.53357 0.306661,1.83198 1.717441,1.26694 3.434882,2.53389 5.152323,3.80083 -1.019531,1.03451 -2.039062,2.06901 -3.058594,3.10352 -0.910406,-0.5324 -1.71901,-1.29001 -2.696617,-1.67649 -1.060263,0.0677 -2.058124,0.60122 -3.093024,0.85179 -1.162567,0.36344 -2.325135,0.72688 -3.487702,1.09032 -1.28711,-1.90364 -2.574219,-3.80729 -3.861329,-5.71094 0,-1.99284 1e-6,-3.98567 0,-5.97851 2.014889,-0.0199 4.035538,0.0395 6.046876,-0.0293 0.795309,-0.1771 0.853926,-1.16903 0.427671,-1.73029 -0.451151,-1.01439 -0.902302,-2.02877 -1.353453,-3.04315 1.690104,-0.0469 3.380209,-0.0937 5.070313,-0.14062 2.127604,1.50325 4.255208,3.00651 6.382812,4.50976 z" /><path
       style="color:#000000;fill:#ffffff;stroke-linecap:round;stroke-linejoin:round;-inkscape-stroke:none"
       d="m 68.212891,127.33203 -6.761719,0.18555 a 0.39691468,0.39691468 0 0 0 -0.351563,0.55664 l 1.871094,4.20898 h -6.146484 a 0.39691468,0.39691468 0 0 0 -0.396485,0.39649 v 7.18554 a 0.39691468,0.39691468 0 0 0 0.06836,0.22266 l 4.408203,6.51953 a 0.39691468,0.39691468 0 0 0 0.447265,0.15625 l 6.634766,-2.07422 2.804688,1.86524 a 0.39691468,0.39691468 0 0 0 0.503906,-0.0508 l 4.34375,-4.41211 a 0.39691468,0.39691468 0 0 0 -0.04687,-0.59766 l -5.791016,-4.27148 5.292969,-1.7168 a 0.39691468,0.39691468 0 0 0 0.269531,-0.31836 l 0.353516,-2.38477 a 0.39691468,0.39691468 0 0 0 -0.164063,-0.38281 l -7.101562,-5.01367 a 0.39691468,0.39691468 0 0 0 -0.238281,-0.0742 z m -0.111329,0.79883 6.794922,4.79687 -0.28125,1.89844 -5.794922,1.88086 a 0.39691468,0.39691468 0 0 0 -0.113281,0.69531 l 6.046875,4.45899 -3.794922,3.85156 -2.691406,-1.78906 a 0.39691468,0.39691468 0 0 0 -0.337891,-0.0469 l -6.533203,2.04102 -4.175781,-6.17383 v -6.66797 h 6.359375 a 0.39691468,0.39691468 0 0 0 0.363281,-0.55664 l -1.876953,-4.22461 z"
       id="path1503" /><rect
       style="font-variation-settings:normal;opacity:1;fill:none;fill-opacity:1;stroke:#ffffff;stroke-width:0.26458333;stroke-linecap:butt;stroke-linejoin:miter;stroke-miterlimit:4;stroke-dasharray:3.17499983,3.17499983;stroke-dashoffset:0;stroke-opacity:1;stop-color:#000000;stop-opacity:1"
       id="rect1931"
       width="23.8125"
       height="23.8125"
       x="54.101402"
       y="124.70786" /><rect
       style="font-variation-settings:normal;opacity:1;fill:none;fill-opacity:1;stroke:#ffffff;stroke-width:0.264583;stroke-linecap:butt;stroke-linejoin:miter;stroke-miterlimit:4;stroke-dasharray:3.175, 3.175;stroke-dashoffset:0;stroke-opacity:1;stop-color:#000000;stop-opacity:1"
       id="rect1933"
       width="23.8125"
       height="23.8125"
       x="77.979935"
       y="124.70786" /></g></svg>
