<?xml version="1.0" encoding="UTF-8" standalone="no"?>
<!-- Created with Inkscape (http://www.inkscape.org/) -->

<svg
   width="210mm"
   height="297mm"
   viewBox="0 0 210 297"
   version="1.1"
   id="svg288"
   xml:space="preserve"
   inkscape:export-filename="asteroid-A.png"
   inkscape:export-xdpi="13.683502"
   inkscape:export-ydpi="13.683502"
   inkscape:version="1.2.2 (b0a8486541, 2022-12-01)"
   sodipodi:docname="asteroids.svg"
   xmlns:inkscape="http://www.inkscape.org/namespaces/inkscape"
   xmlns:sodipodi="http://sodipodi.sourceforge.net/DTD/sodipodi-0.dtd"
   xmlns:xlink="http://www.w3.org/1999/xlink"
   xmlns="http://www.w3.org/2000/svg"
   xmlns:svg="http://www.w3.org/2000/svg"><sodipodi:namedview
     id="namedview290"
     pagecolor="#2c2c2c"
     bordercolor="#000000"
     borderopacity="0.25"
     inkscape:showpageshadow="2"
     inkscape:pageopacity="0"
     inkscape:pagecheckerboard="true"
     inkscape:deskcolor="#d1d1d1"
     inkscape:document-units="mm"
     showgrid="false"
     inkscape:zoom="2.5877449"
     inkscape:cx="274.17694"
     inkscape:cy="547.19458"
     inkscape:window-width="1920"
     inkscape:window-height="1128"
     inkscape:window-x="0"
     inkscape:window-y="219"
     inkscape:window-maximized="1"
     inkscape:current-layer="layer1"
     showguides="true"
     inkscape:export-bgcolor="#ffffff00"><sodipodi:guide
       position="14.298626,178.42771"
       orientation="1,0"
       id="guide1218"
       inkscape:locked="false" /><sodipodi:guide
       position="39.722084,170.06315"
       orientation="1,0"
       id="guide1220"
       inkscape:locked="false" /><sodipodi:guide
       position="27.043736,165.41101"
       orientation="1,0"
       id="guide1222"
       inkscape:locked="false" /><sodipodi:guide
       position="24.487617,171.87799"
       orientation="0,-1"
       id="guide1224"
       inkscape:locked="false" /><sodipodi:guide
       position="85.32324,145.11543"
       orientation="0,-1"
       id="guide1612"
       inkscape:locked="false" /><sodipodi:guide
       position="72.747136,135.55555"
       orientation="1,0"
       id="guide1614"
       inkscape:locked="false" /><sodipodi:guide
       position="88.564992,138.73978"
       orientation="1,0"
       id="guide2539"
       inkscape:locked="false" /><sodipodi:guide
       position="96.058938,129.16525"
       orientation="0,-1"
       id="guide3022"
       inkscape:locked="false" /><sodipodi:guide
       position="56.822517,130.44331"
       orientation="1,0"
       id="guide3024"
       inkscape:locked="false" /><sodipodi:guide
       position="104.44474,133.46925"
       orientation="1,0"
       id="guide3026"
       inkscape:locked="false" /><sodipodi:guide
       position="77.648002,120.73759"
       orientation="0,-1"
       id="guide1173"
       inkscape:locked="false" /></sodipodi:namedview><defs
     id="defs285"><filter
       inkscape:collect="always"
       style="color-interpolation-filters:sRGB"
       id="filter1323"
       x="-0.058215543"
       y="-0.057945079"
       width="1.1164311"
       height="1.1158902"><feGaussianBlur
         inkscape:collect="always"
         stdDeviation="0.50749102"
         id="feGaussianBlur1325" /></filter><filter
       inkscape:collect="always"
       style="color-interpolation-filters:sRGB"
       id="filter1323-3"
       x="-0.13581669"
       y="-0.1943621"
       width="1.2716334"
       height="1.3887242"><feGaussianBlur
         inkscape:collect="always"
         stdDeviation="0.57903069"
         id="feGaussianBlur1325-6" /></filter><filter
       inkscape:collect="always"
       style="color-interpolation-filters:sRGB"
       id="filter981"
       x="-0.091399959"
       y="-0.33371421"
       width="1.1827999"
       height="1.6674284"><feGaussianBlur
         inkscape:collect="always"
         stdDeviation="0.20644485"
         id="feGaussianBlur983" /></filter><filter
       inkscape:collect="always"
       style="color-interpolation-filters:sRGB"
       id="filter2651"
       x="-0.20683286"
       y="-0.20623515"
       width="1.4138398"
       height="1.4153832"><feGaussianBlur
         inkscape:collect="always"
         stdDeviation="0.48579826"
         id="feGaussianBlur2649" /></filter><filter
       inkscape:collect="always"
       style="color-interpolation-filters:sRGB"
       id="filter2826"
       x="-0.14643475"
       y="-0.146874"
       width="1.2928695"
       height="1.293748"><feGaussianBlur
         inkscape:collect="always"
         stdDeviation="0.66550063"
         id="feGaussianBlur2824" /></filter><filter
       inkscape:collect="always"
       style="color-interpolation-filters:sRGB"
       id="filter2840"
       x="-0.14395545"
       y="-0.14251627"
       width="1.2879109"
       height="1.2850325"><feGaussianBlur
         inkscape:collect="always"
         stdDeviation="0.67493381"
         id="feGaussianBlur2838" /></filter><filter
       inkscape:collect="always"
       style="color-interpolation-filters:sRGB"
       id="filter986"
       x="-0.12815877"
       y="-0.12690975"
       width="1.2563175"
       height="1.2538195"><feGaussianBlur
         inkscape:collect="always"
         stdDeviation="0.70048111"
         id="feGaussianBlur984" /></filter><filter
       inkscape:collect="always"
       style="color-interpolation-filters:sRGB"
       id="filter990"
       x="-0.10283227"
       y="-0.10320601"
       width="1.2056645"
       height="1.206412"><feGaussianBlur
         inkscape:collect="always"
         stdDeviation="0.55793519"
         id="feGaussianBlur988" /></filter><filter
       inkscape:collect="always"
       style="color-interpolation-filters:sRGB"
       id="filter1383"
       x="-0.10176069"
       y="-0.15506124"
       width="1.2035214"
       height="1.3101225"><feGaussianBlur
         inkscape:collect="always"
         stdDeviation="0.58736099"
         id="feGaussianBlur1385" /></filter></defs><g
     inkscape:label="Layer 1"
     inkscape:groupmode="layer"
     id="layer1"><image
       width="90.311111"
       height="56.444443"
       preserveAspectRatio="none"
       xlink:href="asteroids-cutting-guide-2x.png"
       id="image420"
       x="11.296039"
       y="57.254776"
       style="fill:none;stroke-width:0.79375;stroke-dasharray:none;stroke:#ffffff;stroke-opacity:1;stroke-linejoin:round;stroke-linecap:round" /><rect
       style="fill:none;stroke:none;stroke-width:1.55532;stroke-dasharray:none;stroke-opacity:1"
       id="rect1433"
       width="40.778015"
       height="40.778015"
       x="11.038246"
       y="11.917398"
       inkscape:export-filename="asteroid-A.png"
       inkscape:export-xdpi="99.661545"
       inkscape:export-ydpi="99.661545" /><path
       id="path639"
       style="color:#000000;mix-blend-mode:normal;fill:#d7eef4;stroke-width:0.516639;stroke-dasharray:none;filter:url(#filter1323)"
       d="m 30.132912,15.651606 c -1.434245,0.902995 -2.868489,1.80599 -4.302734,2.708984 -1.60308,-0.926058 -3.204349,-1.855261 -4.808594,-2.779296 -1.883328,1.928486 -3.769774,3.853929 -5.654297,5.78125 0.823679,1.621336 1.669581,3.233655 2.501953,4.851562 -0.926639,1.462759 -1.851467,2.926668 -2.779297,4.388672 1.96202,1.943586 3.92429,3.886928 5.888672,5.828125 0.774355,-0.913639 1.550873,-1.825443 2.326172,-2.738281 2.360679,0.794916 4.721342,1.589881 7.082032,2.384765 1.696335,-2.621311 3.389519,-5.244665 5.083984,-7.867187 -1.329962,-1.298916 -2.657369,-2.600448 -3.986328,-3.900391 1.509151,-0.89447 3.017944,-1.789543 4.527344,-2.683593 -1.832125,-2.072682 -3.665173,-4.144556 -5.5,-6.214844 -0.126303,0.08008 -0.252605,0.160156 -0.378907,0.240234 z m 3.828126,5.652344 c -1.544946,0.915324 -3.08963,1.83109 -4.634766,2.746094 1.482903,1.448711 2.963399,2.899885 4.445312,4.349609 -1.313151,2.031901 -2.626302,4.063802 -3.939453,6.095703 -2.318465,-0.779633 -4.636062,-1.561858 -6.955078,-2.339844 -0.660178,0.777228 -1.321697,1.553316 -1.982422,2.330078 -1.371745,-1.358072 -2.74349,-2.716145 -4.115234,-4.074218 0.871133,-1.376277 1.741933,-2.752765 2.613281,-4.128906 -0.803873,-1.559014 -1.609512,-3.117117 -2.414063,-4.675782 1.423177,-1.455078 2.846355,-2.910156 4.269532,-4.365234 1.536762,0.886841 3.071101,1.7779 4.609375,2.662109 1.46907,-0.925004 2.938856,-1.848872 4.408203,-2.773437 1.231771,1.391276 2.463542,2.782552 3.695313,4.173828 z"
       transform="matrix(0.98654131,0,0,0.98654131,78.379983,111.85981)" /><path
       style="fill:none;stroke:#ffffff;stroke-width:0.79375;stroke-dasharray:none;stroke-opacity:1"
       d="m 94.520059,133.16436 4.897902,-5.00689 4.644509,2.68439 4.48468,-2.82356 4.53554,5.12469 -4.52025,2.67817 4.15959,4.06996 -4.45004,6.88615 -6.92429,-2.32978 -2.125988,2.50026 -4.9346,-4.88354 2.659734,-4.20276 z"
       id="path541"
       sodipodi:nodetypes="ccccccccccccc" /><path
       id="path1169"
       style="color:#000000;font-variation-settings:normal;opacity:1;vector-effect:none;fill:#d7eef4;fill-opacity:1;stroke-width:0.793751;stroke-linecap:butt;stroke-linejoin:miter;stroke-miterlimit:4;stroke-dasharray:none;stroke-dashoffset:0;stroke-opacity:1;-inkscape-stroke:none;filter:url(#filter1323-3);stop-color:#000000;stop-opacity:1"
       d="m 36.30481,136.99808 c -0.863576,0.15735 -0.955518,1.36334 -0.239738,1.78094 0.409486,0.47535 1.203903,0.78351 0.993645,1.52804 0.04855,0.64276 0.0554,1.26993 -0.524734,1.6777 -0.49798,0.46987 -1.129712,1.26305 -0.512376,1.90199 0.785557,0.6523 1.734577,-0.16146 2.559062,-0.32718 2.272246,-0.81885 4.59207,-1.53521 6.834991,-2.41729 0.779022,-0.47906 0.33181,-1.69667 -0.529483,-1.73484 -2.775142,-0.79775 -5.534818,-1.66999 -8.319648,-2.42108 -0.08724,0.004 -0.174479,0.008 -0.261719,0.0117 z m 5.574219,3.45312 c -0.989583,0.34375 -1.979167,0.6875 -2.96875,1.03125 0,-0.63477 0,-1.26953 0,-1.9043 0.989583,0.29102 1.979167,0.58204 2.96875,0.87305 z" /><path
       id="path1307"
       style="color:#000000;font-variation-settings:normal;opacity:1;vector-effect:none;fill:#d7eef4;fill-opacity:1;stroke-width:0.793751;stroke-linecap:butt;stroke-linejoin:miter;stroke-miterlimit:4;stroke-dasharray:none;stroke-dashoffset:0;stroke-opacity:1;-inkscape-stroke:none;filter:url(#filter1323-3);stop-color:#000000;stop-opacity:1"
       d="m 29.077318,125.12791 c -0.910928,0.0887 -1.060159,1.3652 -0.308093,1.79266 0.893366,0.46942 -0.260297,0.75243 -0.663597,1.10376 -0.571181,0.19234 -0.489586,1.24206 0.08866,1.37973 0.422683,0.34552 1.527506,0.58695 0.694619,1.12407 -0.705311,0.4952 -0.459333,1.77297 0.466133,1.76233 1.429424,-0.30983 2.793218,-0.94156 4.196982,-1.37659 1.516612,-0.55808 3.083599,-1.00842 4.569437,-1.63244 0.778735,-0.47729 0.328034,-1.69522 -0.531152,-1.73237 -2.795697,-0.79445 -5.574049,-1.69747 -8.380536,-2.42448 l -0.09997,0.003 z m 5.507812,3.46485 c -0.990234,0.3444 -1.980468,0.6888 -2.970703,1.0332 0,-0.63541 0,-1.27083 0,-1.90625 0.990235,0.29102 1.980469,0.58203 2.970703,0.87305 z"
       inkscape:export-filename="starship.png"
       inkscape:export-xdpi="96"
       inkscape:export-ydpi="96" /><path
       id="path1171"
       style="color:#000000;fill:#f9f9f9;stroke-linecap:round;stroke-linejoin:round;-inkscape-stroke:none"
       d="m 29.208042,125.5425 a 0.39691468,0.39691468 0 0 0 -0.295589,0.68781 l 1.148251,1.07177 -2.012797,1.28933 2.044836,1.26194 -1.015959,1.16995 a 0.39691468,0.39691468 0 0 0 0.429431,0.63666 l 8.240324,-2.86133 a 0.39691468,0.39691468 0 0 0 -0.01757,-0.75602 l -8.433593,-2.48409 a 0.39691468,0.39691468 0 0 0 -0.08733,-0.016 z m 1.472262,1.25005 5.638416,1.66037 -5.669939,1.97042 0.340031,-0.39223 a 0.39691468,0.39691468 0 0 0 0.09767,-0.25993 v -2.42569 a 0.39691468,0.39691468 0 0 0 -0.125057,-0.28939 z m -0.387056,1.30328 v 0.94878 l -0.754993,-0.46509 z" /><g
       id="g308"
       transform="translate(4.7889106,4.4571178)"
       style="opacity:0.538137;fill:#d7eef4;filter:url(#filter981)"
       inkscape:export-filename="laser.png"
       inkscape:export-xdpi="96"
       inkscape:export-ydpi="96"><path
         style="color:#000000;fill:#d7eef4;stroke-width:0.813107;stroke-linecap:round;-inkscape-stroke:none"
         d="m 18.046708,138.49233 h 3.400397"
         id="path328" /><path
         id="path325"
         style="color:#000000;fill:#d7eef4;stroke-linecap:round;-inkscape-stroke:none"
         d="m 17.837593,137.79217 c -1.152408,0.27787 -0.98115,1.09887 -0.105464,1.36565 1.25104,0.16935 2.543597,0.0237 3.810547,0.0723 1.2259,-0.24195 1.074323,-0.90363 0.308589,-1.34611 -1.197492,-0.24822 -2.455177,-0.0418 -3.676562,-0.10938 -0.111259,0.0102 -0.229317,-0.0189 -0.33711,0.0176 z"
         sodipodi:nodetypes="ccccccc" /></g><g
       id="path1435"
       transform="translate(4.6921418,4.4571178)"><path
         style="color:#000000;fill:#d7eef4;stroke-width:0.813107;stroke-linecap:round;-inkscape-stroke:none"
         d="m 18.046708,138.49233 h 3.400397"
         id="path1439" /><path
         style="color:#000000;fill:#f9f9f9;stroke-linecap:round;-inkscape-stroke:none"
         d="m 18.046875,138.08594 a 0.40655351,0.40655351 0 0 0 -0.40625,0.40625 0.40655351,0.40655351 0 0 0 0.40625,0.40625 h 3.400391 a 0.40655351,0.40655351 0 0 0 0.40625,-0.40625 0.40655351,0.40655351 0 0 0 -0.40625,-0.40625 z"
         id="path1441" /></g><rect
       style="opacity:0.538137;fill:none;stroke:none;stroke-width:0.999855"
       id="rect1037"
       width="6.8791666"
       height="3.175"
       x="21.141682"
       y="141.35574" /><g
       id="g1190"
       transform="translate(-0.05532446,-0.08494148)"><path
         id="path1072"
         style="color:#000000;font-variation-settings:normal;opacity:1;vector-effect:none;fill:#d7eef4;fill-opacity:1;stroke-width:0.793751;stroke-linecap:butt;stroke-linejoin:miter;stroke-miterlimit:4;stroke-dasharray:none;stroke-dashoffset:0;stroke-opacity:1;-inkscape-stroke:none;filter:url(#filter1323-3);stop-color:#000000;stop-opacity:1"
         d="m 16.311756,125.22852 c -0.863576,0.15735 -0.955518,1.36334 -0.239738,1.78094 0.409486,0.47535 1.203903,0.78351 0.993645,1.52804 0.04855,0.64276 0.0554,1.26993 -0.524734,1.6777 -0.49798,0.46987 -1.129712,1.26305 -0.512376,1.90199 0.785557,0.6523 1.734577,-0.16146 2.559062,-0.32718 2.272246,-0.81885 4.59207,-1.53521 6.834991,-2.41729 0.779022,-0.47906 0.33181,-1.69667 -0.529483,-1.73484 -2.775142,-0.79775 -5.534818,-1.66999 -8.319648,-2.42108 -0.08724,0.004 -0.174479,0.008 -0.261719,0.0117 z m 5.574219,3.45312 c -0.989583,0.34375 -1.979167,0.6875 -2.96875,1.03125 0,-0.63477 0,-1.26953 0,-1.9043 0.989583,0.29102 1.979167,0.58204 2.96875,0.87305 z" /><path
         style="color:#000000;fill:#f9f9f9;stroke-linecap:round;stroke-linejoin:round;-inkscape-stroke:none"
         d="m 16.487707,125.74609 a 0.39691468,0.39691468 0 0 0 -0.382813,0.67188 l 1.380859,1.28906 v 2.10352 l -1.216796,1.40039 a 0.39691468,0.39691468 0 0 0 0.429687,0.63672 l 8.240234,-2.86133 a 0.39691468,0.39691468 0 0 0 -0.01758,-0.75586 z m 1.384765,1.23438 5.638672,1.66015 -5.669922,1.97071 0.339844,-0.39258 a 0.39691468,0.39691468 0 0 0 0.09766,-0.25977 v -2.42578 a 0.39691468,0.39691468 0 0 0 -0.125,-0.28906 z"
         id="path357" /></g><rect
       style="opacity:0.538137;fill:none;stroke:none;stroke-width:0.976313"
       id="rect1134"
       width="25.4"
       height="12.7"
       x="14.303769"
       y="122.35682" /><path
       id="path1656"
       style="color:#000000;font-variation-settings:normal;opacity:1;vector-effect:none;fill:#d7eef4;fill-opacity:1;stroke-width:0.793751;stroke-linecap:butt;stroke-linejoin:miter;stroke-miterlimit:4;stroke-dasharray:none;stroke-dashoffset:0;stroke-opacity:1;-inkscape-stroke:none;filter:url(#filter1323-3);stop-color:#000000;stop-opacity:1"
       d="m 64.384791,127.41819 c -0.886316,0.0517 -1.10509,1.13884 -0.619291,1.75773 0.445362,1.00263 0.890725,2.00526 1.336088,3.0079 -1.852251,0.0295 -3.71675,-0.0585 -5.561514,0.0432 -0.996655,0.29573 -0.627913,1.51288 -0.694345,2.28261 0.035,2.01041 -0.07013,4.03724 0.05279,6.03739 0.89707,1.58132 2.031031,3.04136 3.019155,4.57599 0.621123,0.81016 1.056073,1.78998 1.805011,2.48467 0.856749,0.3392 1.705571,-0.32893 2.546003,-0.47471 1.527634,-0.47718 3.055269,-0.95436 4.582903,-1.43154 0.997537,0.58705 1.885375,1.40836 2.95388,1.84503 0.954794,0.0604 1.404822,-1.01382 2.075134,-1.5256 1.072256,-1.1488 2.280472,-2.19295 3.267861,-3.40732 0.389789,-0.95081 -0.762583,-1.408 -1.341214,-1.88873 -1.304882,-0.96222 -2.609763,-1.92444 -3.914645,-2.88666 1.501724,-0.52175 3.05819,-0.92261 4.526286,-1.51878 0.688447,-0.57504 0.449376,-1.61765 0.679278,-2.40627 0.1902,-0.60991 0.128871,-1.38364 -0.5385,-1.66795 -2.340074,-1.63146 -4.644504,-3.32284 -7.006908,-4.91677 -1.177794,-0.20857 -2.407061,0.0242 -3.605046,-0.008 -1.187641,0.0326 -2.375282,0.0652 -3.562923,0.0978 z m 12.886719,6.18359 c -0.148578,0.56659 0.06241,1.4374 -0.756303,1.43699 -1.688499,0.57231 -3.414671,1.05718 -5.079634,1.68411 -0.770798,0.45551 -0.420078,1.53357 0.306661,1.83198 1.717441,1.26694 3.434882,2.53389 5.152323,3.80083 -1.019531,1.03451 -2.039062,2.06901 -3.058594,3.10352 -0.910406,-0.5324 -1.71901,-1.29001 -2.696617,-1.67649 -1.060263,0.0677 -2.058124,0.60122 -3.093024,0.85179 -1.162567,0.36344 -2.325135,0.72688 -3.487702,1.09032 -1.28711,-1.90364 -2.574219,-3.80729 -3.861329,-5.71094 0,-1.99284 10e-7,-3.98567 0,-5.97851 2.014889,-0.0199 4.035538,0.0395 6.046876,-0.0293 0.795309,-0.1771 0.853926,-1.16903 0.427671,-1.73029 -0.451151,-1.01439 -0.902302,-2.02877 -1.353453,-3.04315 1.690104,-0.0469 3.380209,-0.0937 5.070313,-0.14062 2.127604,1.50325 4.255208,3.00651 6.382812,4.50976 z" /><path
       style="color:#000000;fill:#ffffff;stroke-linecap:round;stroke-linejoin:round;-inkscape-stroke:none"
       d="m 71.075744,127.74101 -6.761719,0.18555 a 0.39691468,0.39691468 0 0 0 -0.351563,0.55664 l 1.871094,4.20898 h -6.146484 a 0.39691468,0.39691468 0 0 0 -0.396485,0.39649 v 7.18554 a 0.39691468,0.39691468 0 0 0 0.06836,0.22266 l 4.408203,6.51953 a 0.39691468,0.39691468 0 0 0 0.447265,0.15625 l 6.634766,-2.07422 2.804688,1.86524 a 0.39691468,0.39691468 0 0 0 0.503906,-0.0508 l 4.34375,-4.41211 a 0.39691468,0.39691468 0 0 0 -0.04687,-0.59766 l -5.791016,-4.27148 5.292969,-1.7168 a 0.39691468,0.39691468 0 0 0 0.269531,-0.31836 l 0.353516,-2.38477 a 0.39691468,0.39691468 0 0 0 -0.164063,-0.38281 l -7.101562,-5.01367 a 0.39691468,0.39691468 0 0 0 -0.238281,-0.0742 z m -0.111329,0.79883 6.794922,4.79687 -0.28125,1.89844 -5.794922,1.88086 a 0.39691468,0.39691468 0 0 0 -0.113281,0.69531 l 6.046875,4.45899 -3.794922,3.85156 -2.691406,-1.78906 a 0.39691468,0.39691468 0 0 0 -0.337891,-0.0469 l -6.533203,2.04102 -4.175781,-6.17383 v -6.66797 h 6.359375 a 0.39691468,0.39691468 0 0 0 0.363281,-0.55664 l -1.876953,-4.22461 z"
       id="path1503" /><rect
       style="font-variation-settings:normal;opacity:1;fill:none;fill-opacity:1;stroke:#ffffff;stroke-width:0.267492;stroke-linecap:butt;stroke-linejoin:miter;stroke-miterlimit:4;stroke-dasharray:3.20989, 3.20989;stroke-dashoffset:0;stroke-opacity:1;stop-color:#000000;stop-opacity:1"
       id="rect1931"
       width="24.074179"
       height="24.074175"
       x="56.965706"
       y="125.11838"
       inkscape:export-filename="asteroid-B.png"
       inkscape:export-xdpi="92.541916"
       inkscape:export-ydpi="92.541916" /><rect
       style="font-variation-settings:normal;opacity:1;fill:none;fill-opacity:1;stroke:#ffffff;stroke-width:0;stroke-linecap:butt;stroke-linejoin:miter;stroke-miterlimit:4;stroke-dasharray:none;stroke-dashoffset:0;stroke-opacity:1;stop-color:#000000;stop-opacity:1"
       id="rect1933"
       width="23.8125"
       height="23.8125"
       x="91.680733"
       y="125.52583" /><rect
       style="font-variation-settings:normal;fill:none;fill-opacity:1;stroke:#ffffff;stroke-width:0;stroke-linecap:butt;stroke-linejoin:miter;stroke-miterlimit:4;stroke-dasharray:none;stroke-dashoffset:0;stroke-opacity:1;stop-color:#000000"
       id="rect2"
       width="28.045834"
       height="28.045834"
       x="123.8537"
       y="121.91849"
       inkscape:export-filename="asteroid-C.png"
       inkscape:export-xdpi="144.90565"
       inkscape:export-ydpi="144.90565" /><g
       id="g5"
       transform="matrix(1.0009453,0,0,0.9872918,24.636285,0.76275192)"><path
         id="path4"
         style="font-variation-settings:normal;opacity:1;vector-effect:none;fill:#d7eef4;fill-opacity:1;stroke-width:0.805584;stroke-linecap:butt;stroke-linejoin:miter;stroke-miterlimit:4;stroke-dasharray:none;stroke-dashoffset:0;stroke-opacity:1;-inkscape-stroke:none;filter:url(#filter1323-3);stop-color:#000000;stop-opacity:1"
         d="m 118.08066,126.38839 c -2.53125,0.026 -5.0625,0.0526 -7.59375,0.0781 -2.66202,2.6049 -5.32367,5.21017 -7.98438,7.81641 1.42812,0.79722 2.85818,1.59097 4.28711,2.38672 -1.40232,0.63807 -2.80491,1.27555 -4.20703,1.91406 2.15948,2.95718 4.32358,5.91097 6.48437,8.86719 1.22179,-1.8643 2.44266,-3.7292 3.66407,-5.59375 -0.017,1.66601 -0.0333,3.33204 -0.0508,4.99805 1.90565,-0.0627 3.81126,-0.12698 5.71679,-0.19336 1.78968,-2.43184 3.57541,-4.86661 5.36719,-7.29688 -0.0157,-1.7897 -0.0271,-3.57944 -0.043,-5.36914 -1.78777,-2.53598 -3.57599,-5.07167 -5.36133,-7.60937 -0.0931,6.5e-4 -0.18619,0.001 -0.27929,0.002 z m 3.79492,8.19922 c -0.0302,1.41353 0.10024,2.87914 -0.0299,4.26025 -1.46918,1.99788 -2.93837,3.99577 -4.40755,5.99365 -0.96224,0.0326 -1.92448,0.0651 -2.88672,0.0977 0.0312,-3.12956 0.0635,-6.2591 0.0937,-9.38867 -1.88611,2.88321 -3.77348,5.7656 -5.66016,8.64844 -1.18815,-1.6237 -2.3763,-3.2474 -3.56445,-4.8711 1.82613,-0.83146 3.65292,-1.6615 5.47852,-2.49414 -1.77493,-0.98782 -3.55082,-1.97389 -5.32618,-2.96093 1.89323,-1.85352 3.78646,-3.70704 5.67969,-5.56055 2.05143,-0.0215 4.10287,-0.043 6.1543,-0.0645 1.48958,2.11328 2.97917,4.22656 4.46875,6.33984 z" /><path
         style="fill:none;stroke:#ffffff;stroke-width:0.79375;stroke-dasharray:none"
         d="m 104.1452,138.95667 5.02471,6.8683 4.66322,-7.12135 -0.0723,7.19365 4.30173,-0.14459 4.91626,-6.68757 -0.0361,-4.77166 -4.91626,-6.97675 -7.0129,0.0723 -6.83216,6.68756 4.80782,2.67502 z"
         id="path3"
         sodipodi:nodetypes="cccccccccccc" /></g><rect
       style="font-variation-settings:normal;fill:none;fill-opacity:1;stroke:#ffffff;stroke-width:0;stroke-linecap:butt;stroke-linejoin:miter;stroke-miterlimit:4;stroke-dasharray:none;stroke-dashoffset:0;stroke-opacity:1;stop-color:#000000"
       id="rect324"
       width="15.874999"
       height="15.874999"
       x="56.840305"
       y="151.90942"
       inkscape:export-filename="fragment-A.png"
       inkscape:export-xdpi="96"
       inkscape:export-ydpi="96" /><path
       id="path1094"
       style="color:#000000;font-variation-settings:normal;vector-effect:none;fill:#d7eef4;fill-opacity:1;stroke-width:0.793751;stroke-linecap:butt;stroke-linejoin:miter;stroke-miterlimit:4;stroke-dasharray:none;stroke-dashoffset:0;stroke-opacity:1;-inkscape-stroke:none;filter:url(#filter2840);stop-color:#000000;opacity:0.9"
       d="m 66.783472,154.2379 c -0.640345,0.36889 -1.208669,0.85842 -1.820312,1.27539 -0.82872,-0.34664 -1.55917,-1.05699 -2.464146,-1.14153 -0.85191,0.16688 -1.281203,1.08448 -1.931698,1.59089 -0.540301,0.55831 -1.531502,1.2277 -0.997796,2.11545 0.222984,0.6256 0.701356,1.26806 0.766355,1.88323 -0.365995,0.75293 -1.102738,1.38681 -1.184259,2.23904 0.140413,0.88007 1.10846,1.29473 1.632122,1.94625 0.662112,0.46997 1.15456,1.56269 2.096415,1.35806 0.598283,-0.0688 0.751631,-1.04608 1.2882,-0.9667 1.042159,0.27848 2.035561,0.83372 3.111213,0.92648 0.897753,-0.27373 1.107713,-1.35974 1.656942,-2.02236 0.417971,-0.81892 1.145076,-1.51752 1.362589,-2.41709 -0.06077,-0.86086 -1.01482,-1.24991 -1.498047,-1.8711 0.59525,-0.48575 1.789748,-0.79425 1.578125,-1.77929 -0.492971,-0.91897 -1.392577,-1.57218 -2.04429,-2.38612 -0.391945,-0.46396 -0.870533,-1.02925 -1.551413,-0.7506 z m 1.277344,3.18555 c -0.602724,0.49833 -1.83691,0.81727 -1.613407,1.81296 0.338607,0.79637 1.191624,1.2529 1.744266,1.90383 -0.483073,0.76953 -0.966146,1.53906 -1.449219,2.3086 -1.057191,-0.29352 -2.069713,-0.81974 -3.15625,-0.96289 -0.589721,-0.11622 -0.829595,1.09538 -1.242419,0.58975 -0.248881,-0.44599 -1.307092,-0.79095 -0.949691,-1.31262 0.346756,-0.74061 1.337324,-1.49596 0.806514,-2.38104 -0.253629,-0.55716 -0.507258,-1.11432 -0.760888,-1.67149 0.43099,-0.43294 0.861979,-0.86588 1.292969,-1.29882 0.779644,0.33479 1.467911,0.97897 2.314583,1.1002 0.785563,-0.10799 1.314851,-0.83015 1.982292,-1.20958 0.34375,0.3737 0.6875,0.7474 1.03125,1.1211 z" /><path
       style="fill:none;stroke:#ffffff;stroke-width:0.79375;stroke-dasharray:none;stroke-dashoffset:0;stop-color:#000000"
       d="m 61.399256,159.91796 -1.10792,-2.43416 2.233276,-2.2425 2.47112,1.33477 2.116742,-1.53349 2.331625,2.53067 -2.16088,1.41128 2.050878,1.98277 -2.231734,3.56442 -3.463265,-1.16312 -1.048392,1.23345 -2.580722,-2.46616 z"
       id="path441"
       sodipodi:nodetypes="ccccccccccccc" /><path
       style="color:#000000;font-variation-settings:normal;vector-effect:none;fill:#d7eef4;fill-opacity:1;stroke-width:0.793751;stroke-linecap:butt;stroke-linejoin:miter;stroke-miterlimit:4;stroke-dasharray:none;stroke-dashoffset:0;stroke-opacity:1;-inkscape-stroke:none;filter:url(#filter2826);stop-color:#000000;opacity:0.9"
       d="m 78.368786,154.41804 a 0.79382936,0.79382936 0 0 0 -0.736328,1.10156 l 0.539062,1.27735 h -2.125 a 0.79382936,0.79382936 0 0 0 -0.792968,0.77929 l -0.06445,3.49805 a 0.79382936,0.79382936 0 0 0 0.138672,0.46484 l 2.351563,3.41016 a 0.79382936,0.79382936 0 0 0 0.898437,0.30469 l 2.97461,-0.96875 1.072265,0.79883 a 0.79382936,0.79382936 0 0 0 1.054688,-0.0937 l 2.130859,-2.2793 a 0.79382936,0.79382936 0 0 0 -0.109375,-1.18164 l -1.933594,-1.41602 1.646485,-0.55468 a 0.79382936,0.79382936 0 0 0 0.533203,-0.64844 l 0.142578,-1.08789 a 0.79382936,0.79382936 0 0 0 -0.330082,-0.75196 l -3.533203,-2.48828 a 0.79382936,0.79382936 0 0 0 -0.453125,-0.14453 z m 1.193359,1.59375 1.953125,0.0117 2.9375,2.06836 -0.01563,0.1211 -2.625,0.88476 a 0.79382936,0.79382936 0 0 0 -0.216797,1.39258 l 2.445313,1.79101 -1.037109,1.10547 -0.832032,-0.62109 a 0.79382936,0.79382936 0 0 0 -0.720703,-0.11719 l -2.800781,0.91211 -1.869141,-2.71289 0.04687,-2.46289 h 2.541016 a 0.79382936,0.79382936 0 0 0 0.730469,-1.10156 z"
       id="path1408"
       inkscape:export-filename="fragment-B.png"
       inkscape:export-xdpi="96"
       inkscape:export-ydpi="96" /><path
       style="font-variation-settings:normal;fill:none;fill-opacity:1;stroke:#ffffff;stroke-width:0.79375;stroke-linecap:butt;stroke-linejoin:miter;stroke-miterlimit:4;stroke-dasharray:none;stroke-dashoffset:0;stroke-opacity:1;stop-color:#000000"
       d="M 76.076752,157.56561 H 79.3979 l -1.005113,-2.38044 3.405462,0.0206 3.533754,2.48768 -0.141572,1.08768 -3.09594,1.04325 3.166205,2.31901 -2.132055,2.27773 -1.4016,-1.04384 -3.365074,1.09679 -2.350172,-3.41163 z"
       id="path1280" /><rect
       style="font-variation-settings:normal;fill:none;fill-opacity:1;stroke:#ffffff;stroke-width:0;stroke-linecap:butt;stroke-linejoin:miter;stroke-miterlimit:4;stroke-dasharray:none;stroke-dashoffset:0;stroke-opacity:1;stop-color:#000000"
       id="rect1597"
       width="15.874999"
       height="15.874999"
       x="72.705063"
       y="151.91785"
       inkscape:export-filename="fragment-A.png"
       inkscape:export-xdpi="96"
       inkscape:export-ydpi="96" /><path
       style="font-variation-settings:normal;opacity:1;fill:none;fill-opacity:1;stroke:#ffffff;stroke-width:0.79375;stroke-linecap:round;stroke-linejoin:round;stroke-miterlimit:4;stroke-dasharray:none;stroke-dashoffset:0;stroke-opacity:1;stop-color:#000000;stop-opacity:1"
       d="m 49.82797,94.19592 -2.396257,-1.34652 3.466158,-3.403373 3.281945,-0.03074 2.482099,3.454255 0.01866,2.614434 -2.506295,3.430584 -2.164872,-0.03967 0.182205,-3.832706 -2.322413,3.66166 -2.651965,-3.390162 z"
       id="path1803"
       sodipodi:nodetypes="cccccccccccc" /><path
       id="path2537"
       style="font-variation-settings:normal;opacity:0.9;mix-blend-mode:normal;fill:none;fill-opacity:1;stroke:#d7eef4;stroke-width:1.5875;stroke-linecap:round;stroke-linejoin:round;stroke-miterlimit:4;stroke-dasharray:none;stroke-dashoffset:0;stroke-opacity:1;filter:url(#filter2651);stop-color:#000000"
       d="m 95.450718,155.12175 c -1.15494,1.13476 -2.30989,2.26953 -3.46484,3.40429 0.79636,0.44833 1.59279,0.89654 2.38867,1.34571 -0.86766,0.37279 -1.73561,0.74493 -2.60351,1.11718 0.8912,1.10462 1.78299,2.34728 2.67383,3.36719 0.81819,-1.0935 1.69089,-2.14497 2.52734,-3.22461 -0.1309,1.14662 -0.25569,2.2938 -0.4082,3.4375 0.72858,-0.10187 1.55866,0.14145 2.2192,-0.0573 0.81496,-1.11373 1.629912,-2.22745 2.444862,-3.34117 -0.0633,-1.19447 0.30531,-2.61618 -0.67554,-3.54606 -0.606852,-0.84468 -1.213702,-1.68935 -1.820552,-2.53402 -1.09375,0.0104 -2.1875,0.0208 -3.28126,0.0312 z"
       inkscape:export-filename="fragment-C.png"
       inkscape:export-xdpi="96"
       inkscape:export-ydpi="96" /><path
       style="font-variation-settings:normal;fill:none;fill-opacity:1;stroke:#ffffff;stroke-width:0.79375;stroke-linecap:round;stroke-linejoin:round;stroke-miterlimit:4;stroke-dasharray:none;stroke-dashoffset:0;stroke-opacity:1;stop-color:#000000"
       d="m 94.388077,159.88631 -2.39626,-1.34652 3.46616,-3.40337 3.28194,-0.0307 2.482103,3.45425 0.0187,2.61444 -2.506293,3.43057 -2.16487,-0.0397 0.31245,-3.52647 -2.45266,3.35543 -2.65196,-3.39016 z"
       id="path2535"
       sodipodi:nodetypes="cccccccccccc" /><rect
       style="font-variation-settings:normal;fill:none;fill-opacity:1;stroke:#ffffff;stroke-width:0;stroke-linecap:butt;stroke-linejoin:miter;stroke-miterlimit:4;stroke-dasharray:none;stroke-dashoffset:0;stroke-opacity:1;stop-color:#000000"
       id="rect2659"
       width="15.874999"
       height="15.874999"
       x="88.571564"
       y="151.91785"
       inkscape:export-filename="fragment-A.png"
       inkscape:export-xdpi="96"
       inkscape:export-ydpi="96" /><path
       id="path347"
       style="color:#000000;font-variation-settings:normal;opacity:0.7;vector-effect:none;fill:#d7eef4;fill-opacity:1;stroke-width:0.793751;stroke-linecap:butt;stroke-linejoin:miter;stroke-miterlimit:4;stroke-dasharray:none;stroke-dashoffset:0;stroke-opacity:1;-inkscape-stroke:none;filter:url(#filter986);stop-color:#000000"
       d="m 67.099609,168.44141 c -0.902782,-0.009 -1.542527,0.81362 -2.257812,1.16797 -0.953014,-0.58081 -2.20187,-1.39267 -3.285156,-0.65235 -0.905587,0.63216 -1.559199,1.55173 -2.390625,2.27539 -0.727525,0.69751 -0.91726,1.84062 -0.361328,2.70117 0.165854,0.51208 0.803351,1.06305 0.238809,1.52555 -0.663488,0.84617 -1.207741,2.09165 -0.4517,3.05258 0.745234,0.92877 1.74367,1.6168 2.527344,2.51562 0.843781,0.93545 2.524669,0.89578 3.167968,-0.24414 1.064034,0.33133 2.160942,0.94904 3.289093,0.80353 1.383632,-0.44901 1.753838,-2.01904 2.556587,-3.06564 0.610793,-0.90773 1.526434,-2.05248 0.876977,-3.16953 -0.03911,-0.41631 -1.007555,-0.75761 -0.415323,-1.03499 0.887563,-0.63624 1.016092,-2.01383 0.221747,-2.77783 -0.746257,-0.9102 -1.589521,-1.74348 -2.394315,-2.59929 -0.368402,-0.30719 -0.835644,-0.51609 -1.322266,-0.49804 z m -3.71875,4.63671 c 0.651804,0.38498 1.513115,0.76412 2.205079,0.52149 -0.467411,1.19159 0.558197,2.20657 1.396484,2.9043 -0.348456,0.33741 -0.460666,1.36555 -1.092686,0.8808 -0.973128,-0.28734 -2.064285,-0.91424 -3.069424,-0.45307 -0.581478,0.48939 -0.214852,-0.16823 0.02744,-0.45184 0.624,-0.81517 0.540353,-1.92441 -0.0067,-2.75489 -0.473941,-0.54844 -0.08249,-1.23547 0.53983,-0.64679 z"
       transform="matrix(0.55862772,0,0,0.55862772,24.586583,74.045443)" /><path
       style="fill:none;stroke:#ffffff;stroke-width:0.79375;stroke-dasharray:none;stroke-dashoffset:0;stop-color:#000000"
       d="m 58.886735,171.87185 -0.61118,-1.34279 1.231979,-1.23707 1.363185,0.73632 1.167694,-0.84594 1.286233,1.39603 -1.192042,0.77853 1.131359,1.09379 -1.231128,1.9663 -1.910499,-0.64163 -0.578341,0.68043 -1.423647,-1.36045 z"
       id="path349"
       sodipodi:nodetypes="ccccccccccccc" /><path
       id="path972"
       style="color:#000000;font-variation-settings:normal;opacity:0.7;vector-effect:none;fill:#d7eef4;fill-opacity:1;stroke-width:0.793751;stroke-linecap:butt;stroke-linejoin:miter;stroke-miterlimit:4;stroke-dasharray:none;stroke-dashoffset:0;stroke-opacity:1;-inkscape-stroke:none;filter:url(#filter990);stop-color:#000000"
       d="m 78.113281,169.49805 c -1.031537,0.0844 -1.826417,1.20205 -1.546632,2.20087 -0.147102,0.29381 -0.982236,0.0683 -1.381104,0.33656 -0.755486,0.41551 -1.080819,1.28706 -1.005303,2.1285 0.04311,1.21443 -0.185262,2.46384 0.05299,3.65537 0.799013,1.39026 1.787272,2.6848 2.705278,3.9987 0.636572,0.81065 1.775047,0.72487 2.627425,0.33224 0.616859,-0.14306 1.27382,-0.53071 1.86583,-0.52221 0.659872,0.6073 1.658811,1.06794 2.495965,0.56528 1.046372,-0.71566 1.770591,-1.8165 2.685547,-2.68945 0.842068,-0.89592 0.454236,-2.42466 -0.613281,-2.95508 1.082701,-0.50809 1.081102,-1.8549 1.144531,-2.88672 -0.113487,-1.31499 -1.544651,-1.76306 -2.416437,-2.5012 -1.076403,-0.62093 -1.990884,-1.83123 -3.35465,-1.67688 -1.084688,0.018 -2.182103,-0.0595 -3.260163,0.014 z m 3.058594,3.68945 c 0.281754,0.3165 1.616319,0.78527 0.598524,0.91381 -0.530565,0.15375 -0.866009,0.55449 -0.555555,-0.22826 0.01927,-0.21608 -0.04929,-0.54227 -0.04297,-0.68555 z m -0.859375,2.21094 c -0.231993,0.60416 -0.05552,1.37428 0.425768,1.82706 0.619975,0.44306 0.586477,0.55693 -0.191581,0.71032 -0.530665,0.0208 -1.304424,0.75969 -1.650423,0.23506 -0.390228,-0.73185 -1.25215,-1.32212 -1.042574,-2.23402 -0.104298,-0.74766 1.026129,-0.23593 1.507638,-0.38608 0.24641,0.16354 1.200531,-0.50415 0.951172,-0.15234 z"
       transform="matrix(0.5,0,0,0.5,36.374609,83.796683)" /><path
       style="font-variation-settings:normal;fill:none;fill-opacity:1;stroke:#ffffff;stroke-width:0.79375;stroke-linecap:butt;stroke-linejoin:miter;stroke-miterlimit:4;stroke-dasharray:none;stroke-dashoffset:0;stroke-opacity:1;stop-color:#000000"
       d="m 74.308995,170.63298 h 1.660574 l -0.502556,-1.19022 1.702731,0.0103 1.766877,1.24384 -0.07079,0.54384 -1.54797,0.52162 1.583102,1.15951 -1.066027,1.13886 -0.7008,-0.52192 -1.682537,0.5484 -1.175086,-1.70582 z"
       id="path974" /><rect
       style="font-variation-settings:normal;fill:none;fill-opacity:1;stroke:#ffffff;stroke-width:0;stroke-linecap:butt;stroke-linejoin:miter;stroke-miterlimit:4;stroke-dasharray:none;stroke-dashoffset:0;stroke-opacity:1;stop-color:#000000"
       id="rect976"
       width="7.9374995"
       height="7.9374995"
       x="72.724236"
       y="167.80908"
       inkscape:export-filename="fragment-A.png"
       inkscape:export-xdpi="96"
       inkscape:export-ydpi="96" /><path
       id="path1043"
       style="color:#000000;opacity:0.7;fill:#d7eef4;stroke-linecap:round;stroke-linejoin:round;-inkscape-stroke:none;filter:url(#filter2651)"
       d="m 95.433594,169.20117 c -1.368441,0.13325 -2.08308,1.48132 -3.06453,2.28142 -0.785914,0.94065 -2.163671,1.61692 -2.22258,2.97639 -0.07979,0.61923 0.691834,1.10116 0.03428,1.55179 -0.632212,1.02099 0.0777,2.13872 0.791889,2.88962 0.832487,0.9948 1.51304,2.15498 2.533203,2.96875 0.561492,0.3194 1.2942,0.35026 1.84961,0.002 0.74301,0.67233 1.8213,0.42162 2.736657,0.5297 1.021268,0.0349 2.057224,-0.40557 2.539534,-1.34789 0.75416,-1.12518 1.70034,-2.13818 2.341,-3.33024 0.20553,-0.9679 0.11891,-1.99139 0.0762,-2.97657 -0.12446,-1.64299 -1.45284,-2.7457 -2.27575,-4.05727 -0.49377,-0.8893 -1.366443,-1.6824 -2.458218,-1.51509 -0.960423,0.009 -1.920846,0.0183 -2.881268,0.0274 z m 3.615234,5.43555 c 0.564933,0.44171 0.269734,1.24162 0.332031,1.85156 -0.475091,0.75865 -0.606346,0.88364 -0.683593,-0.0781 -0.350341,-0.98384 -1.596029,-1.48439 -2.525391,-1.00586 -0.116016,-0.60861 -0.582783,-1.09307 -1.130859,-1.35157 0.452507,-0.34691 0.801527,-0.97788 1.314838,-1.15531 0.54823,0.11782 1.375924,-0.31608 1.666559,0.31027 0.342138,0.47635 0.684277,0.95269 1.026415,1.42903 z"
       transform="matrix(0.50000003,0,0,0.50000003,44.285779,83.924449)"
       inkscape:export-filename="small-C.png"
       inkscape:export-xdpi="81.858467"
       inkscape:export-ydpi="81.858467" /><path
       style="font-variation-settings:normal;fill:none;fill-opacity:1;stroke:#ffffff;stroke-width:0.79375;stroke-linecap:round;stroke-linejoin:round;stroke-miterlimit:4;stroke-dasharray:none;stroke-dashoffset:0;stroke-opacity:1;stop-color:#000000"
       d="m 91.485838,171.83815 -1.19813,-0.67326 1.73308,-1.70168 1.64097,-0.0154 1.241052,1.72712 0.0093,1.30722 -1.253147,1.71529 -1.082435,-0.0198 0.156225,-1.76324 -1.22633,1.67772 -1.32598,-1.69508 z"
       id="path1045"
       sodipodi:nodetypes="cccccccccccc" /><rect
       style="font-variation-settings:normal;fill:none;fill-opacity:1;stroke:#ffffff;stroke-width:0;stroke-linecap:butt;stroke-linejoin:miter;stroke-miterlimit:4;stroke-dasharray:none;stroke-dashoffset:0;stroke-opacity:1;stop-color:#000000"
       id="rect1047"
       width="7.9374995"
       height="7.9374995"
       x="88.577538"
       y="167.85387"
       inkscape:export-filename="fragment-A.png"
       inkscape:export-xdpi="96"
       inkscape:export-ydpi="96" /><g
       id="g3881"
       transform="translate(-78.523199,72.333929)"><path
         id="path1378"
         style="color:#000000;opacity:0.9;fill:#d5f1ff;fill-opacity:1;stroke-linecap:round;stroke-linejoin:round;-inkscape-stroke:none;filter:url(#filter1383)"
         d="m 110.4707,85.496094 c -0.91532,0.24384 -0.95144,1.392309 -1.38437,2.086205 -0.26681,0.971086 -1.31362,1.342407 -1.98086,2.005592 -0.73206,0.03935 -1.84311,-0.253638 -2.12695,0.685547 0.004,0.743502 -0.3144,1.840402 0.53357,2.244317 0.61808,0.239165 1.41617,-0.199611 1.85106,0.464537 0.85925,0.576169 1.53643,1.755807 2.71293,1.554876 1.46482,-0.07448 2.95857,0.03451 4.40554,-0.15414 0.85183,-0.426369 1.43018,-1.346454 2.24143,-1.787325 0.69496,-0.0131 1.74639,0.203366 1.99765,-0.685547 -0.005,-0.742756 0.31501,-1.838199 -0.53135,-2.242909 -0.73244,-0.244294 -1.62196,0.196527 -2.20853,-0.465841 -0.5857,-0.456995 -1.43854,-0.693349 -1.58212,-1.515512 -0.43485,-0.724614 -0.44277,-1.923366 -1.38503,-2.187847 -0.8422,-0.03977 -1.70027,-0.03728 -2.54297,-0.002 z m 1.77149,1.832031 c 0.60303,0.809878 -0.62444,0.400159 -1.09297,0.496094 -0.44215,-0.552771 0.66343,-0.537257 1.09297,-0.496094 z m 1.60156,5.267578 c -1.30648,0.06095 -2.6387,0.05613 -3.95508,0.0918 0.0253,-0.214389 1.14463,-0.03054 1.59063,-0.0918 0.78815,0 1.5763,0 2.36445,0 z" /><path
         id="path1292"
         style="color:#000000;opacity:1;fill:#ffffff;stroke-linecap:round;stroke-linejoin:round;-inkscape-stroke:none"
         d="m 110.62098,86.007646 a 0.39691468,0.39691468 0 0 0 -0.36329,0.236161 l -1.02371,2.317172 -1.94613,1.559594 h -1.41697 c -0.21887,2.37e-4 -0.39612,0.178002 -0.39636,0.396875 v 1.156002 c 2.4e-4,0.218874 0.17749,0.396121 0.39636,0.396358 h 1.22525 l 2.20865,1.859314 a 0.39691468,0.39691468 0 0 0 0.26148,0.092 l 4.62711,-0.0899 a 0.39691468,0.39691468 0 0 0 0.2558,-0.10128 l 1.97197,-1.760102 h 1.40663 c 0.21888,-2.37e-4 0.39664,-0.177484 0.39688,-0.396358 V 90.51748 c -2.4e-4,-0.218873 -0.178,-0.396638 -0.39688,-0.396875 h -1.4242 l -2.16163,-1.431437 v -5.17e-4 l -1.01544,-2.43706 a 0.39691468,0.39691468 0 0 0 -0.36535,-0.243913 z m 0.25993,0.794784 h 1.71462 l 0.64699,1.554427 h -3.04942 z m -1.11363,2.349727 h 3.73466 l 1.46399,0.968416 h -6.40839 z m -1.43764,2.917651 h 6.89984 l -1.19838,1.070734 -4.32996,0.0837 z" /></g></g></svg>
