<?xml version="1.0" encoding="UTF-8" standalone="no"?>
<!-- Created with Inkscape (http://www.inkscape.org/) -->

<svg
   width="210mm"
   height="297mm"
   viewBox="0 0 210 297"
   version="1.1"
   id="svg288"
   xml:space="preserve"
   inkscape:export-filename="asteroid-A.png"
   inkscape:export-xdpi="13.683502"
   inkscape:export-ydpi="13.683502"
   inkscape:version="1.2.2 (b0a8486541, 2022-12-01)"
   sodipodi:docname="asteroids.svg"
   xmlns:inkscape="http://www.inkscape.org/namespaces/inkscape"
   xmlns:sodipodi="http://sodipodi.sourceforge.net/DTD/sodipodi-0.dtd"
   xmlns:xlink="http://www.w3.org/1999/xlink"
   xmlns="http://www.w3.org/2000/svg"
   xmlns:svg="http://www.w3.org/2000/svg"><sodipodi:namedview
     id="namedview290"
     pagecolor="#2c2c2c"
     bordercolor="#000000"
     borderopacity="0.25"
     inkscape:showpageshadow="2"
     inkscape:pageopacity="0"
     inkscape:pagecheckerboard="true"
     inkscape:deskcolor="#d1d1d1"
     inkscape:document-units="mm"
     showgrid="false"
     inkscape:zoom="1.829812"
     inkscape:cx="268.06032"
     inkscape:cy="514.26047"
     inkscape:window-width="1920"
     inkscape:window-height="1128"
     inkscape:window-x="0"
     inkscape:window-y="219"
     inkscape:window-maximized="1"
     inkscape:current-layer="layer1"
     showguides="true"
     inkscape:export-bgcolor="#ffffff00"><sodipodi:guide
       position="14.298626,178.42771"
       orientation="1,0"
       id="guide1218"
       inkscape:locked="false" /><sodipodi:guide
       position="39.722084,170.06315"
       orientation="1,0"
       id="guide1220"
       inkscape:locked="false" /><sodipodi:guide
       position="27.043736,165.41101"
       orientation="1,0"
       id="guide1222"
       inkscape:locked="false" /><sodipodi:guide
       position="24.487617,171.87799"
       orientation="0,-1"
       id="guide1224"
       inkscape:locked="false" /><sodipodi:guide
       position="85.32324,145.11543"
       orientation="0,-1"
       id="guide1612"
       inkscape:locked="false" /><sodipodi:guide
       position="72.747136,135.55555"
       orientation="1,0"
       id="guide1614"
       inkscape:locked="false" /><sodipodi:guide
       position="88.564992,138.73978"
       orientation="1,0"
       id="guide2539"
       inkscape:locked="false" /><sodipodi:guide
       position="96.058938,129.16525"
       orientation="0,-1"
       id="guide3022"
       inkscape:locked="false" /><sodipodi:guide
       position="56.822517,130.44331"
       orientation="1,0"
       id="guide3024"
       inkscape:locked="false" /><sodipodi:guide
       position="104.44474,133.46925"
       orientation="1,0"
       id="guide3026"
       inkscape:locked="false" /></sodipodi:namedview><defs
     id="defs285"><filter
       inkscape:collect="always"
       style="color-interpolation-filters:sRGB"
       id="filter1323"
       x="-0.058215543"
       y="-0.057945079"
       width="1.1164311"
       height="1.1158902"><feGaussianBlur
         inkscape:collect="always"
         stdDeviation="0.50749102"
         id="feGaussianBlur1325" /></filter><filter
       inkscape:collect="always"
       style="color-interpolation-filters:sRGB"
       id="filter1323-3"
       x="-0.13581669"
       y="-0.1943621"
       width="1.2716334"
       height="1.3887242"><feGaussianBlur
         inkscape:collect="always"
         stdDeviation="0.57903069"
         id="feGaussianBlur1325-6" /></filter><filter
       inkscape:collect="always"
       style="color-interpolation-filters:sRGB"
       id="filter981"
       x="-0.091399959"
       y="-0.33371421"
       width="1.1827999"
       height="1.6674284"><feGaussianBlur
         inkscape:collect="always"
         stdDeviation="0.20644485"
         id="feGaussianBlur983" /></filter><filter
       inkscape:collect="always"
       style="color-interpolation-filters:sRGB"
       id="filter2651"
       x="-0.20683286"
       y="-0.20623515"
       width="1.4138398"
       height="1.4153832"><feGaussianBlur
         inkscape:collect="always"
         stdDeviation="0.48579826"
         id="feGaussianBlur2649" /></filter><filter
       inkscape:collect="always"
       style="color-interpolation-filters:sRGB"
       id="filter2826"
       x="-0.12269626"
       y="-0.1230643"
       width="1.2453925"
       height="1.2461286"><feGaussianBlur
         inkscape:collect="always"
         stdDeviation="0.55761652"
         id="feGaussianBlur2824" /></filter><filter
       inkscape:collect="always"
       style="color-interpolation-filters:sRGB"
       id="filter2840"
       x="-0.12350044"
       y="-0.12226576"
       width="1.2470009"
       height="1.2445315"><feGaussianBlur
         inkscape:collect="always"
         stdDeviation="0.57903069"
         id="feGaussianBlur2838" /></filter></defs><g
     inkscape:label="Layer 1"
     inkscape:groupmode="layer"
     id="layer1"><image
       width="90.311111"
       height="56.444443"
       preserveAspectRatio="none"
       xlink:href="asteroids-cutting-guide-2x.png"
       id="image420"
       x="11.296039"
       y="57.254776"
       style="fill:none;stroke-width:0.79375;stroke-dasharray:none;stroke:#ffffff;stroke-opacity:1;stroke-linejoin:round;stroke-linecap:round" /><rect
       style="fill:none;stroke:none;stroke-width:1.55532;stroke-dasharray:none;stroke-opacity:1"
       id="rect1433"
       width="40.778015"
       height="40.778015"
       x="11.038246"
       y="11.917398"
       inkscape:export-filename="asteroid-A.png"
       inkscape:export-xdpi="99.661545"
       inkscape:export-ydpi="99.661545" /><g
       id="g1877"
       transform="translate(72.853894,66.025825)"><path
         id="path639"
         style="color:#000000;mix-blend-mode:normal;fill:#d7eef4;stroke-width:0.516639;stroke-dasharray:none;filter:url(#filter1323)"
         d="m 30.132912,15.651606 c -1.434245,0.902995 -2.868489,1.80599 -4.302734,2.708984 -1.60308,-0.926058 -3.204349,-1.855261 -4.808594,-2.779296 -1.883328,1.928486 -3.769774,3.853929 -5.654297,5.78125 0.823679,1.621336 1.669581,3.233655 2.501953,4.851562 -0.926639,1.462759 -1.851467,2.926668 -2.779297,4.388672 1.96202,1.943586 3.92429,3.886928 5.888672,5.828125 0.774355,-0.913639 1.550873,-1.825443 2.326172,-2.738281 2.360679,0.794916 4.721342,1.589881 7.082032,2.384765 1.696335,-2.621311 3.389519,-5.244665 5.083984,-7.867187 -1.329962,-1.298916 -2.657369,-2.600448 -3.986328,-3.900391 1.509151,-0.89447 3.017944,-1.789543 4.527344,-2.683593 -1.832125,-2.072682 -3.665173,-4.144556 -5.5,-6.214844 -0.126303,0.08008 -0.252605,0.160156 -0.378907,0.240234 z m 3.828126,5.652344 c -1.544946,0.915324 -3.08963,1.83109 -4.634766,2.746094 1.482903,1.448711 2.963399,2.899885 4.445312,4.349609 -1.313151,2.031901 -2.626302,4.063802 -3.939453,6.095703 -2.318465,-0.779633 -4.636062,-1.561858 -6.955078,-2.339844 -0.660178,0.777228 -1.321697,1.553316 -1.982422,2.330078 -1.371745,-1.358072 -2.74349,-2.716145 -4.115234,-4.074218 0.871133,-1.376277 1.741933,-2.752765 2.613281,-4.128906 -0.803873,-1.559014 -1.609512,-3.117117 -2.414063,-4.675782 1.423177,-1.455078 2.846355,-2.910156 4.269532,-4.365234 1.536762,0.886841 3.071101,1.7779 4.609375,2.662109 1.46907,-0.925004 2.938856,-1.848872 4.408203,-2.773437 1.231771,1.391276 2.463542,2.782552 3.695313,4.173828 z"
         transform="matrix(0.98654131,0,0,0.98654131,5.5260889,45.833985)" /><path
         style="fill:none;stroke:#ffffff;stroke-width:0.79375;stroke-dasharray:none;stroke-opacity:1"
         d="m 21.666165,67.138536 4.897902,-5.006892 4.644513,2.684395 4.484676,-2.823561 4.535541,5.12469 -4.520251,2.678171 4.159588,4.069952 -4.450043,6.88615 -6.924281,-2.329774 -2.125992,2.500255 -4.9346,-4.883542 2.659734,-4.202758 z"
         id="path541"
         sodipodi:nodetypes="ccccccccccccc" /></g><path
       id="path1169"
       style="color:#000000;font-variation-settings:normal;opacity:1;vector-effect:none;fill:#d7eef4;fill-opacity:1;stroke-width:0.793751;stroke-linecap:butt;stroke-linejoin:miter;stroke-miterlimit:4;stroke-dasharray:none;stroke-dashoffset:0;stroke-opacity:1;-inkscape-stroke:none;filter:url(#filter1323-3);stop-color:#000000;stop-opacity:1"
       d="m 36.30481,136.99808 c -0.863576,0.15735 -0.955518,1.36334 -0.239738,1.78094 0.409486,0.47535 1.203903,0.78351 0.993645,1.52804 0.04855,0.64276 0.0554,1.26993 -0.524734,1.6777 -0.49798,0.46987 -1.129712,1.26305 -0.512376,1.90199 0.785557,0.6523 1.734577,-0.16146 2.559062,-0.32718 2.272246,-0.81885 4.59207,-1.53521 6.834991,-2.41729 0.779022,-0.47906 0.33181,-1.69667 -0.529483,-1.73484 -2.775142,-0.79775 -5.534818,-1.66999 -8.319648,-2.42108 -0.08724,0.004 -0.174479,0.008 -0.261719,0.0117 z m 5.574219,3.45312 c -0.989583,0.34375 -1.979167,0.6875 -2.96875,1.03125 0,-0.63477 0,-1.26953 0,-1.9043 0.989583,0.29102 1.979167,0.58204 2.96875,0.87305 z" /><path
       id="path1307"
       style="color:#000000;font-variation-settings:normal;opacity:1;vector-effect:none;fill:#d7eef4;fill-opacity:1;stroke-width:0.793751;stroke-linecap:butt;stroke-linejoin:miter;stroke-miterlimit:4;stroke-dasharray:none;stroke-dashoffset:0;stroke-opacity:1;-inkscape-stroke:none;filter:url(#filter1323-3);stop-color:#000000;stop-opacity:1"
       d="m 29.077318,125.12791 c -0.910928,0.0887 -1.060159,1.3652 -0.308093,1.79266 0.893366,0.46942 -0.260297,0.75243 -0.663597,1.10376 -0.571181,0.19234 -0.489586,1.24206 0.08866,1.37973 0.422683,0.34552 1.527506,0.58695 0.694619,1.12407 -0.705311,0.4952 -0.459333,1.77297 0.466133,1.76233 1.429424,-0.30983 2.793218,-0.94156 4.196982,-1.37659 1.516612,-0.55808 3.083599,-1.00842 4.569437,-1.63244 0.778735,-0.47729 0.328034,-1.69522 -0.531152,-1.73237 -2.795697,-0.79445 -5.574049,-1.69747 -8.380536,-2.42448 l -0.09997,0.003 z m 5.507812,3.46485 c -0.990234,0.3444 -1.980468,0.6888 -2.970703,1.0332 0,-0.63541 0,-1.27083 0,-1.90625 0.990235,0.29102 1.980469,0.58203 2.970703,0.87305 z"
       inkscape:export-filename="starship.png"
       inkscape:export-xdpi="96"
       inkscape:export-ydpi="96" /><path
       id="path1171"
       style="color:#000000;fill:#f9f9f9;stroke-linecap:round;stroke-linejoin:round;-inkscape-stroke:none"
       d="m 29.208042,125.5425 a 0.39691468,0.39691468 0 0 0 -0.295589,0.68781 l 1.148251,1.07177 -2.012797,1.28933 2.044836,1.26194 -1.015959,1.16995 a 0.39691468,0.39691468 0 0 0 0.429431,0.63666 l 8.240324,-2.86133 a 0.39691468,0.39691468 0 0 0 -0.01757,-0.75602 l -8.433593,-2.48409 a 0.39691468,0.39691468 0 0 0 -0.08733,-0.016 z m 1.472262,1.25005 5.638416,1.66037 -5.669939,1.97042 0.340031,-0.39223 a 0.39691468,0.39691468 0 0 0 0.09767,-0.25993 v -2.42569 a 0.39691468,0.39691468 0 0 0 -0.125057,-0.28939 z m -0.387056,1.30328 v 0.94878 l -0.754993,-0.46509 z" /><g
       id="g308"
       transform="translate(4.7889106,4.4571178)"
       style="opacity:0.538137;fill:#d7eef4;filter:url(#filter981)"
       inkscape:export-filename="laser.png"
       inkscape:export-xdpi="96"
       inkscape:export-ydpi="96"><path
         style="color:#000000;fill:#d7eef4;stroke-width:0.813107;stroke-linecap:round;-inkscape-stroke:none"
         d="m 18.046708,138.49233 h 3.400397"
         id="path328" /><path
         id="path325"
         style="color:#000000;fill:#d7eef4;stroke-linecap:round;-inkscape-stroke:none"
         d="m 17.837593,137.79217 c -1.152408,0.27787 -0.98115,1.09887 -0.105464,1.36565 1.25104,0.16935 2.543597,0.0237 3.810547,0.0723 1.2259,-0.24195 1.074323,-0.90363 0.308589,-1.34611 -1.197492,-0.24822 -2.455177,-0.0418 -3.676562,-0.10938 -0.111259,0.0102 -0.229317,-0.0189 -0.33711,0.0176 z"
         sodipodi:nodetypes="ccccccc" /></g><g
       id="path1435"
       transform="translate(4.6921418,4.4571178)"><path
         style="color:#000000;fill:#d7eef4;stroke-width:0.813107;stroke-linecap:round;-inkscape-stroke:none"
         d="m 18.046708,138.49233 h 3.400397"
         id="path1439" /><path
         style="color:#000000;fill:#f9f9f9;stroke-linecap:round;-inkscape-stroke:none"
         d="m 18.046875,138.08594 a 0.40655351,0.40655351 0 0 0 -0.40625,0.40625 0.40655351,0.40655351 0 0 0 0.40625,0.40625 h 3.400391 a 0.40655351,0.40655351 0 0 0 0.40625,-0.40625 0.40655351,0.40655351 0 0 0 -0.40625,-0.40625 z"
         id="path1441" /></g><rect
       style="opacity:0.538137;fill:none;stroke:none;stroke-width:0.999855"
       id="rect1037"
       width="6.8791666"
       height="3.175"
       x="21.141682"
       y="141.35574" /><g
       id="g1190"
       transform="translate(-0.05532446,-0.08494148)"><path
         id="path1072"
         style="color:#000000;font-variation-settings:normal;opacity:1;vector-effect:none;fill:#d7eef4;fill-opacity:1;stroke-width:0.793751;stroke-linecap:butt;stroke-linejoin:miter;stroke-miterlimit:4;stroke-dasharray:none;stroke-dashoffset:0;stroke-opacity:1;-inkscape-stroke:none;filter:url(#filter1323-3);stop-color:#000000;stop-opacity:1"
         d="m 16.311756,125.22852 c -0.863576,0.15735 -0.955518,1.36334 -0.239738,1.78094 0.409486,0.47535 1.203903,0.78351 0.993645,1.52804 0.04855,0.64276 0.0554,1.26993 -0.524734,1.6777 -0.49798,0.46987 -1.129712,1.26305 -0.512376,1.90199 0.785557,0.6523 1.734577,-0.16146 2.559062,-0.32718 2.272246,-0.81885 4.59207,-1.53521 6.834991,-2.41729 0.779022,-0.47906 0.33181,-1.69667 -0.529483,-1.73484 -2.775142,-0.79775 -5.534818,-1.66999 -8.319648,-2.42108 -0.08724,0.004 -0.174479,0.008 -0.261719,0.0117 z m 5.574219,3.45312 c -0.989583,0.34375 -1.979167,0.6875 -2.96875,1.03125 0,-0.63477 0,-1.26953 0,-1.9043 0.989583,0.29102 1.979167,0.58204 2.96875,0.87305 z" /><path
         style="color:#000000;fill:#f9f9f9;stroke-linecap:round;stroke-linejoin:round;-inkscape-stroke:none"
         d="m 16.487707,125.74609 a 0.39691468,0.39691468 0 0 0 -0.382813,0.67188 l 1.380859,1.28906 v 2.10352 l -1.216796,1.40039 a 0.39691468,0.39691468 0 0 0 0.429687,0.63672 l 8.240234,-2.86133 a 0.39691468,0.39691468 0 0 0 -0.01758,-0.75586 z m 1.384765,1.23438 5.638672,1.66015 -5.669922,1.97071 0.339844,-0.39258 a 0.39691468,0.39691468 0 0 0 0.09766,-0.25977 v -2.42578 a 0.39691468,0.39691468 0 0 0 -0.125,-0.28906 z"
         id="path357" /></g><rect
       style="opacity:0.538137;fill:none;stroke:none;stroke-width:0.976313"
       id="rect1134"
       width="25.4"
       height="12.7"
       x="14.303769"
       y="122.35682" /><path
       id="path1656"
       style="color:#000000;font-variation-settings:normal;opacity:1;vector-effect:none;fill:#d7eef4;fill-opacity:1;stroke-width:0.793751;stroke-linecap:butt;stroke-linejoin:miter;stroke-miterlimit:4;stroke-dasharray:none;stroke-dashoffset:0;stroke-opacity:1;-inkscape-stroke:none;filter:url(#filter1323-3);stop-color:#000000;stop-opacity:1"
       d="m 64.384791,127.41819 c -0.886316,0.0517 -1.10509,1.13884 -0.619291,1.75773 0.445362,1.00263 0.890725,2.00526 1.336088,3.0079 -1.852251,0.0295 -3.71675,-0.0585 -5.561514,0.0432 -0.996655,0.29573 -0.627913,1.51288 -0.694345,2.28261 0.035,2.01041 -0.07013,4.03724 0.05279,6.03739 0.89707,1.58132 2.031031,3.04136 3.019155,4.57599 0.621123,0.81016 1.056073,1.78998 1.805011,2.48467 0.856749,0.3392 1.705571,-0.32893 2.546003,-0.47471 1.527634,-0.47718 3.055269,-0.95436 4.582903,-1.43154 0.997537,0.58705 1.885375,1.40836 2.95388,1.84503 0.954794,0.0604 1.404822,-1.01382 2.075134,-1.5256 1.072256,-1.1488 2.280472,-2.19295 3.267861,-3.40732 0.389789,-0.95081 -0.762583,-1.408 -1.341214,-1.88873 -1.304882,-0.96222 -2.609763,-1.92444 -3.914645,-2.88666 1.501724,-0.52175 3.05819,-0.92261 4.526286,-1.51878 0.688447,-0.57504 0.449376,-1.61765 0.679278,-2.40627 0.1902,-0.60991 0.128871,-1.38364 -0.5385,-1.66795 -2.340074,-1.63146 -4.644504,-3.32284 -7.006908,-4.91677 -1.177794,-0.20857 -2.407061,0.0242 -3.605046,-0.008 -1.187641,0.0326 -2.375282,0.0652 -3.562923,0.0978 z m 12.886719,6.18359 c -0.148578,0.56659 0.06241,1.4374 -0.756303,1.43699 -1.688499,0.57231 -3.414671,1.05718 -5.079634,1.68411 -0.770798,0.45551 -0.420078,1.53357 0.306661,1.83198 1.717441,1.26694 3.434882,2.53389 5.152323,3.80083 -1.019531,1.03451 -2.039062,2.06901 -3.058594,3.10352 -0.910406,-0.5324 -1.71901,-1.29001 -2.696617,-1.67649 -1.060263,0.0677 -2.058124,0.60122 -3.093024,0.85179 -1.162567,0.36344 -2.325135,0.72688 -3.487702,1.09032 -1.28711,-1.90364 -2.574219,-3.80729 -3.861329,-5.71094 0,-1.99284 10e-7,-3.98567 0,-5.97851 2.014889,-0.0199 4.035538,0.0395 6.046876,-0.0293 0.795309,-0.1771 0.853926,-1.16903 0.427671,-1.73029 -0.451151,-1.01439 -0.902302,-2.02877 -1.353453,-3.04315 1.690104,-0.0469 3.380209,-0.0937 5.070313,-0.14062 2.127604,1.50325 4.255208,3.00651 6.382812,4.50976 z" /><path
       style="color:#000000;fill:#ffffff;stroke-linecap:round;stroke-linejoin:round;-inkscape-stroke:none"
       d="m 71.075744,127.74101 -6.761719,0.18555 a 0.39691468,0.39691468 0 0 0 -0.351563,0.55664 l 1.871094,4.20898 h -6.146484 a 0.39691468,0.39691468 0 0 0 -0.396485,0.39649 v 7.18554 a 0.39691468,0.39691468 0 0 0 0.06836,0.22266 l 4.408203,6.51953 a 0.39691468,0.39691468 0 0 0 0.447265,0.15625 l 6.634766,-2.07422 2.804688,1.86524 a 0.39691468,0.39691468 0 0 0 0.503906,-0.0508 l 4.34375,-4.41211 a 0.39691468,0.39691468 0 0 0 -0.04687,-0.59766 l -5.791016,-4.27148 5.292969,-1.7168 a 0.39691468,0.39691468 0 0 0 0.269531,-0.31836 l 0.353516,-2.38477 a 0.39691468,0.39691468 0 0 0 -0.164063,-0.38281 l -7.101562,-5.01367 a 0.39691468,0.39691468 0 0 0 -0.238281,-0.0742 z m -0.111329,0.79883 6.794922,4.79687 -0.28125,1.89844 -5.794922,1.88086 a 0.39691468,0.39691468 0 0 0 -0.113281,0.69531 l 6.046875,4.45899 -3.794922,3.85156 -2.691406,-1.78906 a 0.39691468,0.39691468 0 0 0 -0.337891,-0.0469 l -6.533203,2.04102 -4.175781,-6.17383 v -6.66797 h 6.359375 a 0.39691468,0.39691468 0 0 0 0.363281,-0.55664 l -1.876953,-4.22461 z"
       id="path1503" /><rect
       style="font-variation-settings:normal;opacity:1;fill:none;fill-opacity:1;stroke:#ffffff;stroke-width:0.267492;stroke-linecap:butt;stroke-linejoin:miter;stroke-miterlimit:4;stroke-dasharray:3.20989, 3.20989;stroke-dashoffset:0;stroke-opacity:1;stop-color:#000000;stop-opacity:1"
       id="rect1931"
       width="24.074179"
       height="24.074175"
       x="56.965706"
       y="125.11838"
       inkscape:export-filename="asteroid-B.png"
       inkscape:export-xdpi="92.541916"
       inkscape:export-ydpi="92.541916" /><rect
       style="font-variation-settings:normal;opacity:1;fill:none;fill-opacity:1;stroke:#ffffff;stroke-width:0;stroke-linecap:butt;stroke-linejoin:miter;stroke-miterlimit:4;stroke-dasharray:none;stroke-dashoffset:0;stroke-opacity:1;stop-color:#000000;stop-opacity:1"
       id="rect1933"
       width="23.8125"
       height="23.8125"
       x="91.680733"
       y="125.52583" /><rect
       style="font-variation-settings:normal;fill:none;fill-opacity:1;stroke:#ffffff;stroke-width:0;stroke-linecap:butt;stroke-linejoin:miter;stroke-miterlimit:4;stroke-dasharray:none;stroke-dashoffset:0;stroke-opacity:1;stop-color:#000000"
       id="rect2"
       width="28.045834"
       height="28.045834"
       x="123.8537"
       y="121.91849"
       inkscape:export-filename="asteroid-C.png"
       inkscape:export-xdpi="144.90565"
       inkscape:export-ydpi="144.90565" /><g
       id="g5"
       transform="matrix(1.0009453,0,0,0.9872918,24.636285,0.76275192)"><path
         id="path4"
         style="font-variation-settings:normal;opacity:1;vector-effect:none;fill:#d7eef4;fill-opacity:1;stroke-width:0.805584;stroke-linecap:butt;stroke-linejoin:miter;stroke-miterlimit:4;stroke-dasharray:none;stroke-dashoffset:0;stroke-opacity:1;-inkscape-stroke:none;filter:url(#filter1323-3);stop-color:#000000;stop-opacity:1"
         d="m 118.08066,126.38839 c -2.53125,0.026 -5.0625,0.0526 -7.59375,0.0781 -2.66202,2.6049 -5.32367,5.21017 -7.98438,7.81641 1.42812,0.79722 2.85818,1.59097 4.28711,2.38672 -1.40232,0.63807 -2.80491,1.27555 -4.20703,1.91406 2.15948,2.95718 4.32358,5.91097 6.48437,8.86719 1.22179,-1.8643 2.44266,-3.7292 3.66407,-5.59375 -0.017,1.66601 -0.0333,3.33204 -0.0508,4.99805 1.90565,-0.0627 3.81126,-0.12698 5.71679,-0.19336 1.78968,-2.43184 3.57541,-4.86661 5.36719,-7.29688 -0.0157,-1.7897 -0.0271,-3.57944 -0.043,-5.36914 -1.78777,-2.53598 -3.57599,-5.07167 -5.36133,-7.60937 -0.0931,6.5e-4 -0.18619,0.001 -0.27929,0.002 z m 3.79492,8.19922 c -0.0302,1.41353 0.10024,2.87914 -0.0299,4.26025 -1.46918,1.99788 -2.93837,3.99577 -4.40755,5.99365 -0.96224,0.0326 -1.92448,0.0651 -2.88672,0.0977 0.0312,-3.12956 0.0635,-6.2591 0.0937,-9.38867 -1.88611,2.88321 -3.77348,5.7656 -5.66016,8.64844 -1.18815,-1.6237 -2.3763,-3.2474 -3.56445,-4.8711 1.82613,-0.83146 3.65292,-1.6615 5.47852,-2.49414 -1.77493,-0.98782 -3.55082,-1.97389 -5.32618,-2.96093 1.89323,-1.85352 3.78646,-3.70704 5.67969,-5.56055 2.05143,-0.0215 4.10287,-0.043 6.1543,-0.0645 1.48958,2.11328 2.97917,4.22656 4.46875,6.33984 z" /><path
         style="fill:none;stroke:#ffffff;stroke-width:0.79375;stroke-dasharray:none"
         d="m 104.1452,138.95667 5.02471,6.8683 4.66322,-7.12135 -0.0723,7.19365 4.30173,-0.14459 4.91626,-6.68757 -0.0361,-4.77166 -4.91626,-6.97675 -7.0129,0.0723 -6.83216,6.68756 4.80782,2.67502 z"
         id="path3"
         sodipodi:nodetypes="cccccccccccc" /></g><rect
       style="font-variation-settings:normal;fill:none;fill-opacity:1;stroke:#ffffff;stroke-width:0;stroke-linecap:butt;stroke-linejoin:miter;stroke-miterlimit:4;stroke-dasharray:none;stroke-dashoffset:0;stroke-opacity:1;stop-color:#000000"
       id="rect324"
       width="15.874999"
       height="15.874999"
       x="56.840305"
       y="151.90942"
       inkscape:export-filename="fragment-A.png"
       inkscape:export-xdpi="96"
       inkscape:export-ydpi="96" /><path
       id="path1094"
       style="color:#000000;font-variation-settings:normal;vector-effect:none;fill:#d7eef4;fill-opacity:1;stroke-width:0.793751;stroke-linecap:butt;stroke-linejoin:miter;stroke-miterlimit:4;stroke-dasharray:none;stroke-dashoffset:0;stroke-opacity:1;-inkscape-stroke:none;filter:url(#filter2840);stop-color:#000000;opacity:0.9"
       d="m 66.783472,154.2379 c -0.640345,0.36889 -1.208669,0.85842 -1.820312,1.27539 -0.82872,-0.34664 -1.55917,-1.05699 -2.464146,-1.14153 -0.85191,0.16688 -1.281203,1.08448 -1.931698,1.59089 -0.540301,0.55831 -1.531502,1.2277 -0.997796,2.11545 0.222984,0.6256 0.701356,1.26806 0.766355,1.88323 -0.365995,0.75293 -1.102738,1.38681 -1.184259,2.23904 0.140413,0.88007 1.10846,1.29473 1.632122,1.94625 0.662112,0.46997 1.15456,1.56269 2.096415,1.35806 0.598283,-0.0688 0.751631,-1.04608 1.2882,-0.9667 1.042159,0.27848 2.035561,0.83372 3.111213,0.92648 0.897753,-0.27373 1.107713,-1.35974 1.656942,-2.02236 0.417971,-0.81892 1.145076,-1.51752 1.362589,-2.41709 -0.06077,-0.86086 -1.01482,-1.24991 -1.498047,-1.8711 0.59525,-0.48575 1.789748,-0.79425 1.578125,-1.77929 -0.492971,-0.91897 -1.392577,-1.57218 -2.04429,-2.38612 -0.391945,-0.46396 -0.870533,-1.02925 -1.551413,-0.7506 z m 1.277344,3.18555 c -0.602724,0.49833 -1.83691,0.81727 -1.613407,1.81296 0.338607,0.79637 1.191624,1.2529 1.744266,1.90383 -0.483073,0.76953 -0.966146,1.53906 -1.449219,2.3086 -1.057191,-0.29352 -2.069713,-0.81974 -3.15625,-0.96289 -0.589721,-0.11622 -0.829595,1.09538 -1.242419,0.58975 -0.248881,-0.44599 -1.307092,-0.79095 -0.949691,-1.31262 0.346756,-0.74061 1.337324,-1.49596 0.806514,-2.38104 -0.253629,-0.55716 -0.507258,-1.11432 -0.760888,-1.67149 0.43099,-0.43294 0.861979,-0.86588 1.292969,-1.29882 0.779644,0.33479 1.467911,0.97897 2.314583,1.1002 0.785563,-0.10799 1.314851,-0.83015 1.982292,-1.20958 0.34375,0.3737 0.6875,0.7474 1.03125,1.1211 z" /><path
       style="fill:none;stroke:#ffffff;stroke-width:0.79375;stroke-dasharray:none;stroke-dashoffset:0;stop-color:#000000"
       d="m 61.399256,159.91796 -1.10792,-2.43416 2.233276,-2.2425 2.47112,1.33477 2.116742,-1.53349 2.331625,2.53067 -2.16088,1.41128 2.050878,1.98277 -2.231734,3.56442 -3.463265,-1.16312 -1.048392,1.23345 -2.580722,-2.46616 z"
       id="path441"
       sodipodi:nodetypes="ccccccccccccc" /><path
       style="color:#000000;font-variation-settings:normal;vector-effect:none;fill:#d7eef4;fill-opacity:1;stroke-width:0.793751;stroke-linecap:butt;stroke-linejoin:miter;stroke-miterlimit:4;stroke-dasharray:none;stroke-dashoffset:0;stroke-opacity:1;-inkscape-stroke:none;filter:url(#filter2826);stop-color:#000000;opacity:0.9"
       d="m 78.368786,154.41804 a 0.79382936,0.79382936 0 0 0 -0.736328,1.10156 l 0.539062,1.27735 h -2.125 a 0.79382936,0.79382936 0 0 0 -0.792968,0.77929 l -0.06445,3.49805 a 0.79382936,0.79382936 0 0 0 0.138672,0.46484 l 2.351563,3.41016 a 0.79382936,0.79382936 0 0 0 0.898437,0.30469 l 2.97461,-0.96875 1.072265,0.79883 a 0.79382936,0.79382936 0 0 0 1.054688,-0.0937 l 2.130859,-2.2793 a 0.79382936,0.79382936 0 0 0 -0.109375,-1.18164 l -1.933594,-1.41602 1.646485,-0.55468 a 0.79382936,0.79382936 0 0 0 0.533203,-0.64844 l 0.142578,-1.08789 a 0.79382936,0.79382936 0 0 0 -0.330082,-0.75196 l -3.533203,-2.48828 a 0.79382936,0.79382936 0 0 0 -0.453125,-0.14453 z m 1.193359,1.59375 1.953125,0.0117 2.9375,2.06836 -0.01563,0.1211 -2.625,0.88476 a 0.79382936,0.79382936 0 0 0 -0.216797,1.39258 l 2.445313,1.79101 -1.037109,1.10547 -0.832032,-0.62109 a 0.79382936,0.79382936 0 0 0 -0.720703,-0.11719 l -2.800781,0.91211 -1.869141,-2.71289 0.04687,-2.46289 h 2.541016 a 0.79382936,0.79382936 0 0 0 0.730469,-1.10156 z"
       id="path1408"
       inkscape:export-filename="fragment-B.png"
       inkscape:export-xdpi="96"
       inkscape:export-ydpi="96" /><path
       style="font-variation-settings:normal;fill:none;fill-opacity:1;stroke:#ffffff;stroke-width:0.79375;stroke-linecap:butt;stroke-linejoin:miter;stroke-miterlimit:4;stroke-dasharray:none;stroke-dashoffset:0;stroke-opacity:1;stop-color:#000000"
       d="M 76.076752,157.56561 H 79.3979 l -1.005113,-2.38044 3.405462,0.0206 3.533754,2.48768 -0.141572,1.08768 -3.09594,1.04325 3.166205,2.31901 -2.132055,2.27773 -1.4016,-1.04384 -3.365074,1.09679 -2.350172,-3.41163 z"
       id="path1280" /><rect
       style="font-variation-settings:normal;fill:none;fill-opacity:1;stroke:#ffffff;stroke-width:0;stroke-linecap:butt;stroke-linejoin:miter;stroke-miterlimit:4;stroke-dasharray:none;stroke-dashoffset:0;stroke-opacity:1;stop-color:#000000"
       id="rect1597"
       width="15.874999"
       height="15.874999"
       x="72.705063"
       y="151.91785"
       inkscape:export-filename="fragment-A.png"
       inkscape:export-xdpi="96"
       inkscape:export-ydpi="96" /><path
       style="font-variation-settings:normal;opacity:1;fill:none;fill-opacity:1;stroke:#ffffff;stroke-width:0.79375;stroke-linecap:round;stroke-linejoin:round;stroke-miterlimit:4;stroke-dasharray:none;stroke-dashoffset:0;stroke-opacity:1;stop-color:#000000;stop-opacity:1"
       d="m 49.82797,94.19592 -2.396257,-1.34652 3.466158,-3.403373 3.281945,-0.03074 2.482099,3.454255 0.01866,2.614434 -2.506295,3.430584 -2.164872,-0.03967 0.182205,-3.832706 -2.322413,3.66166 -2.651965,-3.390162 z"
       id="path1803"
       sodipodi:nodetypes="cccccccccccc" /><image
       width="90.311111"
       height="56.444443"
       preserveAspectRatio="none"
       xlink:href="asteroids-cutting-guide-2x.png"
       id="image2533"
       x="6.80971"
       y="59.941013"
       style="fill:none;stroke:#ffffff;stroke-width:0.79375;stroke-linecap:round;stroke-linejoin:round;stroke-dasharray:none;stroke-opacity:1" /><path
       id="path2537"
       style="font-variation-settings:normal;opacity:0.9;mix-blend-mode:normal;fill:none;fill-opacity:1;stroke:#d7eef4;stroke-width:1.5875;stroke-linecap:round;stroke-linejoin:round;stroke-miterlimit:4;stroke-dasharray:none;stroke-dashoffset:0;stroke-opacity:1;filter:url(#filter2651);stop-color:#000000"
       d="m 95.450718,155.12175 c -1.15494,1.13476 -2.30989,2.26953 -3.46484,3.40429 0.79636,0.44833 1.59279,0.89654 2.38867,1.34571 -0.86766,0.37279 -1.73561,0.74493 -2.60351,1.11718 0.8912,1.10462 1.78299,2.34728 2.67383,3.36719 0.81819,-1.0935 1.69089,-2.14497 2.52734,-3.22461 -0.1309,1.14662 -0.25569,2.2938 -0.4082,3.4375 0.72858,-0.10187 1.55866,0.14145 2.2192,-0.0573 0.81496,-1.11373 1.629912,-2.22745 2.444862,-3.34117 -0.0633,-1.19447 0.30531,-2.61618 -0.67554,-3.54606 -0.606852,-0.84468 -1.213702,-1.68935 -1.820552,-2.53402 -1.09375,0.0104 -2.1875,0.0208 -3.28126,0.0312 z"
       inkscape:export-filename="fragment-C.png"
       inkscape:export-xdpi="96"
       inkscape:export-ydpi="96" /><path
       style="font-variation-settings:normal;fill:none;fill-opacity:1;stroke:#ffffff;stroke-width:0.79375;stroke-linecap:round;stroke-linejoin:round;stroke-miterlimit:4;stroke-dasharray:none;stroke-dashoffset:0;stroke-opacity:1;stop-color:#000000"
       d="m 94.388077,159.88631 -2.39626,-1.34652 3.46616,-3.40337 3.28194,-0.0307 2.482103,3.45425 0.0187,2.61444 -2.506293,3.43057 -2.16487,-0.0397 0.31245,-3.52647 -2.45266,3.35543 -2.65196,-3.39016 z"
       id="path2535"
       sodipodi:nodetypes="cccccccccccc" /><rect
       style="font-variation-settings:normal;fill:none;fill-opacity:1;stroke:#ffffff;stroke-width:0;stroke-linecap:butt;stroke-linejoin:miter;stroke-miterlimit:4;stroke-dasharray:none;stroke-dashoffset:0;stroke-opacity:1;stop-color:#000000"
       id="rect2659"
       width="15.874999"
       height="15.874999"
       x="88.571564"
       y="151.91785"
       inkscape:export-filename="fragment-A.png"
       inkscape:export-xdpi="96"
       inkscape:export-ydpi="96" /></g></svg>
