<?xml version="1.0" encoding="UTF-8" standalone="no"?>
<!-- Created with Inkscape (http://www.inkscape.org/) -->

<svg
   width="64"
   height="64"
   viewBox="0 0 16.933333 16.933333"
   version="1.1"
   id="svg21"
   inkscape:version="1.2.2 (b0a8486541, 2022-12-01)"
   sodipodi:docname="starship.svg"
   xmlns:inkscape="http://www.inkscape.org/namespaces/inkscape"
   xmlns:sodipodi="http://sodipodi.sourceforge.net/DTD/sodipodi-0.dtd"
   xmlns="http://www.w3.org/2000/svg"
   xmlns:svg="http://www.w3.org/2000/svg">
  <sodipodi:namedview
     id="namedview23"
     pagecolor="#ffffff"
     bordercolor="#000000"
     borderopacity="0.25"
     inkscape:showpageshadow="2"
     inkscape:pageopacity="0.0"
     inkscape:pagecheckerboard="0"
     inkscape:deskcolor="#d1d1d1"
     inkscape:document-units="mm"
     showgrid="false"
     inkscape:zoom="9.5144352"
     inkscape:cx="58.857934"
     inkscape:cy="33.843312"
     inkscape:window-width="1920"
     inkscape:window-height="1128"
     inkscape:window-x="0"
     inkscape:window-y="219"
     inkscape:window-maximized="1"
     inkscape:current-layer="layer1" />
  <defs
     id="defs18">
    <filter
       inkscape:collect="always"
       style="color-interpolation-filters:sRGB"
       id="filter2543"
       x="-0.049117295"
       y="-0.04445101"
       width="1.0982346"
       height="1.088902">
      <feGaussianBlur
         inkscape:collect="always"
         stdDeviation="0.31008809"
         id="feGaussianBlur2545" />
    </filter>
  </defs>
  <g
     inkscape:label="Layer 1"
     inkscape:groupmode="layer"
     id="layer1">
    <path
       id="path2536"
       style="color:#000000;fill:#ececec;stroke-width:0.9763125;stroke-dasharray:none;filter:url(#filter2543)"
       d="M 8.3982973,0.16774778 C 7.5236192,0.36749944 7.4881238,1.4795656 7.0649206,2.1227916 5.0262191,6.6293748 2.9215951,11.118362 0.92681506,15.637034 c -0.1677781,0.756933 0.69617824,1.056592 1.30054704,0.931958 0.7905653,-0.01 1.5861981,0.02688 2.3741712,-0.0071 0.1234328,0.910686 0.4310846,-0.278892 0.7132043,-0.560647 0.115605,-0.791375 0.4164511,-1.802814 1.375978,-1.865208 1.1624145,-0.100965 2.3452477,-0.05501 3.5077544,0.0288 0.916079,0.04763 1.474448,0.892506 1.519849,1.742964 0.305532,0.957161 1.466704,0.651774 2.220841,0.699089 0.564083,0.0021 1.128165,0.0045 1.692249,0.0064 0.321705,-0.309455 0.57983,-0.763463 0.318463,-1.239526 C 13.724398,10.43991 11.513058,5.496587 9.262152,0.57583792 9.0885953,0.285973 8.7312798,0.11118879 8.3982973,0.16774778 Z M 11.367439,8.5278746 C 12.37529,10.766351 13.386538,13.004097 14.395696,15.242293 13.948207,15.11988 13.105672,15.48938 12.929242,15.03062 12.619039,13.63131 11.241035,12.747583 9.8568951,12.750722 8.4506851,12.795479 6.95944,12.472478 5.6236656,13.043564 4.7841362,13.447367 4.2619016,14.314507 4.0923741,15.207967 3.7084394,15.069539 2.4334135,15.50152 2.7170265,14.935779 4.6517295,10.698841 6.5833152,6.4610636 8.5165292,2.2234541 Z"
       sodipodi:nodetypes="ccccccccccccccccccccccc" />
    <path
       id="path804"
       style="fill:none;stroke:#00ff00;stroke-width:0.332627;stroke-dasharray:none"
       inkscape:transform-center-x="0.010239977"
       inkscape:transform-center-y="-2.5453823"
       d="M 1.6189917,15.857558 5.0359052,8.3701658 8.3415314,1.1266269 C 8.4186027,0.94079927 8.614665,0.94047482 8.7002615,1.100193 l 3.2951165,7.2925435 3.316042,7.3523895 c 0.07223,0.157984 -0.0205,0.32572 -0.192622,0.327782 L 12.678301,16.065 C 12.517072,16.063731 12.3846,15.929954 12.374869,15.810573 12.00383,13.378433 10.014804,13.560673 8.5249808,13.559982 7.0330836,13.559144 5.0723247,13.168326 4.6974887,15.846675 4.6870924,15.964404 4.578597,16.031739 4.4792731,16.03841 l -2.7371834,-0.0089 c -0.1241535,0.0037 -0.1812352,-0.05596 -0.123098,-0.171968 z"
       sodipodi:nodetypes="cccccccccsccccc" />
  </g>
</svg>
