<?xml version="1.0" encoding="UTF-8" standalone="no"?>
<!-- Created with Inkscape (http://www.inkscape.org/) -->

<svg
   width="210mm"
   height="297mm"
   viewBox="0 0 210 297"
   version="1.1"
   id="svg288"
   xml:space="preserve"
   inkscape:export-filename="asteroid-A.png"
   inkscape:export-xdpi="13.683502"
   inkscape:export-ydpi="13.683502"
   inkscape:version="1.2.2 (b0a8486541, 2022-12-01)"
   sodipodi:docname="asteroids.svg"
   xmlns:inkscape="http://www.inkscape.org/namespaces/inkscape"
   xmlns:sodipodi="http://sodipodi.sourceforge.net/DTD/sodipodi-0.dtd"
   xmlns:xlink="http://www.w3.org/1999/xlink"
   xmlns="http://www.w3.org/2000/svg"
   xmlns:svg="http://www.w3.org/2000/svg"><sodipodi:namedview
     id="namedview290"
     pagecolor="#ffffff"
     bordercolor="#000000"
     borderopacity="0.25"
     inkscape:showpageshadow="2"
     inkscape:pageopacity="0.0"
     inkscape:pagecheckerboard="0"
     inkscape:deskcolor="#d1d1d1"
     inkscape:document-units="mm"
     showgrid="false"
     inkscape:zoom="3.659624"
     inkscape:cx="105.74857"
     inkscape:cy="134.16679"
     inkscape:window-width="2560"
     inkscape:window-height="1360"
     inkscape:window-x="1080"
     inkscape:window-y="263"
     inkscape:window-maximized="1"
     inkscape:current-layer="layer1" /><defs
     id="defs285"><filter
       inkscape:collect="always"
       style="color-interpolation-filters:sRGB"
       id="filter1323"
       x="-0.058215543"
       y="-0.057945079"
       width="1.1164311"
       height="1.1158902"><feGaussianBlur
         inkscape:collect="always"
         stdDeviation="0.50749102"
         id="feGaussianBlur1325" /></filter></defs><g
     inkscape:label="Layer 1"
     inkscape:groupmode="layer"
     id="layer1"><image
       width="90.311111"
       height="56.444443"
       preserveAspectRatio="none"
       xlink:href="asteroids-cutting-guide-2x.png"
       id="image420"
       x="16.411858"
       y="57.849354" /><rect
       style="fill:#1c241c;stroke:#d9ffff;stroke-width:0.665001;stroke-dasharray:none;stroke-opacity:1"
       id="rect1379"
       width="38.469341"
       height="48.466347"
       x="-39.907333"
       y="30.914406" /><rect
       style="fill:none;stroke:none;stroke-width:1.55532;stroke-dasharray:none;stroke-opacity:1"
       id="rect1433"
       width="40.778015"
       height="40.778015"
       x="11.038246"
       y="11.917398"
       inkscape:export-filename="asteroid-A.png"
       inkscape:export-xdpi="99.661545"
       inkscape:export-ydpi="99.661545" /><path
       style="fill:none;stroke:#fefefe;stroke-width:0.79375;stroke-dasharray:none;stroke-opacity:1"
       d="m 17.351493,25.393691 7.627668,-7.797401 7.233058,4.180497 6.984136,-4.397225 7.063352,7.980851 -7.039541,4.170807 6.477865,6.338273 -6.9302,10.724033 -10.783415,-3.628236 -3.310879,3.893731 -7.684819,-7.605303 4.142095,-6.545097 z"
       id="path541"
       sodipodi:nodetypes="ccccccccccccc" /><path
       id="path639"
       style="color:#000000;mix-blend-mode:normal;fill:#d7eef4;stroke-width:0.516639;stroke-dasharray:none;filter:url(#filter1323)"
       d="m 30.132912,15.651606 c -1.434245,0.902995 -2.868489,1.80599 -4.302734,2.708984 -1.60308,-0.926058 -3.204349,-1.855261 -4.808594,-2.779296 -1.883328,1.928486 -3.769774,3.853929 -5.654297,5.78125 0.823679,1.621336 1.669581,3.233655 2.501953,4.851562 -0.926639,1.462759 -1.851467,2.926668 -2.779297,4.388672 1.96202,1.943586 3.92429,3.886928 5.888672,5.828125 0.774355,-0.913639 1.550873,-1.825443 2.326172,-2.738281 2.360679,0.794916 4.721342,1.589881 7.082032,2.384765 1.696335,-2.621311 3.389519,-5.244665 5.083984,-7.867187 -1.329962,-1.298916 -2.657369,-2.600448 -3.986328,-3.900391 1.509151,-0.89447 3.017944,-1.789543 4.527344,-2.683593 -1.832125,-2.072682 -3.665173,-4.144556 -5.5,-6.214844 -0.126303,0.08008 -0.252605,0.160156 -0.378907,0.240234 z m 3.828126,5.652344 c -1.544946,0.915324 -3.08963,1.83109 -4.634766,2.746094 1.482903,1.448711 2.963399,2.899885 4.445312,4.349609 -1.313151,2.031901 -2.626302,4.063802 -3.939453,6.095703 -2.318465,-0.779633 -4.636062,-1.561858 -6.955078,-2.339844 -0.660178,0.777228 -1.321697,1.553316 -1.982422,2.330078 -1.371745,-1.358072 -2.74349,-2.716145 -4.115234,-4.074218 0.871133,-1.376277 1.741933,-2.752765 2.613281,-4.128906 -0.803873,-1.559014 -1.609512,-3.117117 -2.414063,-4.675782 1.423177,-1.455078 2.846355,-2.910156 4.269532,-4.365234 1.536762,0.886841 3.071101,1.7779 4.609375,2.662109 1.46907,-0.925004 2.938856,-1.848872 4.408203,-2.773437 1.231771,1.391276 2.463542,2.782552 3.695313,4.173828 z"
       transform="matrix(1.5363739,0,0,1.5363739,-7.4513451,-7.6734516)" /></g></svg>
